<svg width="216" height="30" viewBox="0 0 216 30" fill="none" xmlns="http://www.w3.org/2000/svg">
<path d="M38 21.16C36.4133 21.16 35.2067 20.5467 34.38 19.32C33.5667 18.08 33.16 16.2933 33.16 13.96C33.16 12.3733 33.34 11.0467 33.7 9.98C34.0733 8.91333 34.62 8.10667 35.34 7.56C36.06 7.01333 36.9467 6.74 38 6.74C39.6 6.74 40.8067 7.34667 41.62 8.56C42.4333 9.77333 42.84 11.5667 42.84 13.94C42.84 15.5 42.6533 16.82 42.28 17.9C41.92 18.98 41.38 19.7933 40.66 20.34C39.94 20.8867 39.0533 21.16 38 21.16ZM38 20.06C39.2133 20.06 40.1133 19.56 40.7 18.56C41.2867 17.56 41.58 16.02 41.58 13.94C41.58 11.8333 41.2867 10.2933 40.7 9.32C40.1267 8.33333 39.2267 7.84 38 7.84C36.7867 7.84 35.8867 8.33333 35.3 9.32C34.7133 10.3067 34.42 11.8467 34.42 13.94C34.42 16.02 34.7133 17.56 35.3 18.56C35.8867 19.56 36.7867 20.06 38 20.06ZM49.9922 21.16C48.4055 21.16 47.1989 20.5467 46.3722 19.32C45.5589 18.08 45.1522 16.2933 45.1522 13.96C45.1522 12.3733 45.3322 11.0467 45.6922 9.98C46.0655 8.91333 46.6122 8.10667 47.3322 7.56C48.0522 7.01333 48.9389 6.74 49.9922 6.74C51.5922 6.74 52.7989 7.34667 53.6122 8.56C54.4255 9.77333 54.8322 11.5667 54.8322 13.94C54.8322 15.5 54.6455 16.82 54.2722 17.9C53.9122 18.98 53.3722 19.7933 52.6522 20.34C51.9322 20.8867 51.0455 21.16 49.9922 21.16ZM49.9922 20.06C51.2055 20.06 52.1055 19.56 52.6922 18.56C53.2789 17.56 53.5722 16.02 53.5722 13.94C53.5722 11.8333 53.2789 10.2933 52.6922 9.32C52.1189 8.33333 51.2189 7.84 49.9922 7.84C48.7789 7.84 47.8789 8.33333 47.2922 9.32C46.7055 10.3067 46.4122 11.8467 46.4122 13.94C46.4122 16.02 46.7055 17.56 47.2922 18.56C47.8789 19.56 48.7789 20.06 49.9922 20.06ZM64.4044 21.12C64.2044 21.12 64.051 21.0667 63.9444 20.96C63.8377 20.8533 63.7844 20.7 63.7844 20.5V17.82H57.6844C57.4844 17.82 57.3244 17.7733 57.2044 17.68C57.0977 17.5733 57.0444 17.4267 57.0444 17.24C57.0444 17.1333 57.0644 17.0267 57.1044 16.92C57.1577 16.8 57.2377 16.66 57.3444 16.5L63.7244 7.18C63.8177 7.04667 63.9177 6.94667 64.0244 6.88C64.1444 6.81333 64.2777 6.78 64.4244 6.78C64.5977 6.78 64.7377 6.83333 64.8444 6.94C64.9644 7.03333 65.0244 7.18667 65.0244 7.4V16.74H66.7044C66.9044 16.74 67.051 16.7867 67.1444 16.88C67.251 16.9733 67.3044 17.1067 67.3044 17.28C67.3044 17.4533 67.251 17.5867 67.1444 17.68C67.051 17.7733 66.9044 17.82 66.7044 17.82H65.0244V20.5C65.0244 20.7 64.971 20.8533 64.8644 20.96C64.7577 21.0667 64.6044 21.12 64.4044 21.12ZM63.7844 16.74V8.3H64.2244L58.2044 17.08V16.74H63.7844ZM76.3966 21.12C76.1966 21.12 76.0432 21.0667 75.9366 20.96C75.8299 20.8533 75.7766 20.7 75.7766 20.5V17.82H69.6766C69.4766 17.82 69.3166 17.7733 69.1966 17.68C69.0899 17.5733 69.0366 17.4267 69.0366 17.24C69.0366 17.1333 69.0566 17.0267 69.0966 16.92C69.1499 16.8 69.2299 16.66 69.3366 16.5L75.7166 7.18C75.8099 7.04667 75.9099 6.94667 76.0166 6.88C76.1366 6.81333 76.2699 6.78 76.4166 6.78C76.5899 6.78 76.7299 6.83333 76.8366 6.94C76.9566 7.03333 77.0166 7.18667 77.0166 7.4V16.74H78.6966C78.8966 16.74 79.0432 16.7867 79.1366 16.88C79.2432 16.9733 79.2966 17.1067 79.2966 17.28C79.2966 17.4533 79.2432 17.5867 79.1366 17.68C79.0432 17.7733 78.8966 17.82 78.6966 17.82H77.0166V20.5C77.0166 20.7 76.9632 20.8533 76.8566 20.96C76.7499 21.0667 76.5966 21.12 76.3966 21.12ZM75.7766 16.74V8.3H76.2166L70.1966 17.08V16.74H75.7766ZM88.0878 21C87.9145 21 87.7745 20.9533 87.6678 20.86C87.5611 20.7533 87.5078 20.6133 87.5078 20.44C87.5078 20.2667 87.5611 20.14 87.6678 20.06C87.7745 19.9667 87.9145 19.92 88.0878 19.92H90.8678V7.88H91.5678L88.6678 9.86C88.5345 9.95333 88.4078 10 88.2878 10C88.1678 9.98667 88.0678 9.94 87.9878 9.86C87.9078 9.78 87.8478 9.68667 87.8078 9.58C87.7811 9.47333 87.7878 9.36 87.8278 9.24C87.8678 9.12 87.9545 9.02 88.0878 8.94L90.8478 7.02C90.9811 6.94 91.1011 6.88 91.2078 6.84C91.3145 6.8 91.4345 6.78 91.5678 6.78C91.7145 6.78 91.8345 6.82667 91.9278 6.92C92.0345 7 92.0878 7.14 92.0878 7.34V19.92H94.6678C94.8545 19.92 94.9945 19.9667 95.0878 20.06C95.1945 20.14 95.2478 20.2667 95.2478 20.44C95.2478 20.6267 95.1945 20.7667 95.0878 20.86C94.9945 20.9533 94.8545 21 94.6678 21H88.0878ZM102.08 21.16C101.453 21.16 100.807 21.0267 100.14 20.76C99.4733 20.4933 98.9 20.1133 98.42 19.62C98.3133 19.5267 98.2467 19.42 98.22 19.3C98.1933 19.18 98.2 19.0667 98.24 18.96C98.28 18.8533 98.34 18.7667 98.42 18.7C98.5 18.62 98.6 18.5867 98.72 18.6C98.84 18.6 98.96 18.6533 99.08 18.76C99.5333 19.2 100.02 19.5267 100.54 19.74C101.06 19.94 101.58 20.04 102.1 20.04C103.02 20.04 103.8 19.8133 104.44 19.36C105.08 18.8933 105.567 18.2 105.9 17.28C106.233 16.3467 106.4 15.1867 106.4 13.8V11.78H106.54C106.473 12.5667 106.253 13.2533 105.88 13.84C105.507 14.4267 105.02 14.88 104.42 15.2C103.833 15.5067 103.167 15.66 102.42 15.66C101.58 15.66 100.833 15.4733 100.18 15.1C99.54 14.7267 99.0333 14.2067 98.66 13.54C98.3 12.86 98.12 12.0933 98.12 11.24C98.12 10.36 98.3067 9.58 98.68 8.9C99.0667 8.22 99.5867 7.69333 100.24 7.32C100.907 6.93333 101.667 6.74 102.52 6.74C103.613 6.74 104.54 7.00667 105.3 7.54C106.06 8.07333 106.633 8.85333 107.02 9.88C107.42 10.8933 107.62 12.12 107.62 13.56C107.62 14.7867 107.493 15.8733 107.24 16.82C107 17.7667 106.64 18.56 106.16 19.2C105.68 19.84 105.093 20.3267 104.4 20.66C103.72 20.9933 102.947 21.16 102.08 21.16ZM102.62 14.56C103.273 14.56 103.84 14.42 104.32 14.14C104.813 13.8467 105.2 13.4467 105.48 12.94C105.76 12.4333 105.9 11.8533 105.9 11.2C105.9 10.5333 105.76 9.94667 105.48 9.44C105.2 8.93333 104.813 8.54 104.32 8.26C103.84 7.96667 103.273 7.82 102.62 7.82C101.98 7.82 101.413 7.96667 100.92 8.26C100.44 8.54 100.06 8.93333 99.78 9.44C99.5 9.94667 99.36 10.5333 99.36 11.2C99.36 11.8533 99.5 12.4333 99.78 12.94C100.06 13.4467 100.44 13.8467 100.92 14.14C101.413 14.42 101.98 14.56 102.62 14.56ZM112.072 21C111.899 21 111.759 20.9533 111.652 20.86C111.546 20.7533 111.492 20.6133 111.492 20.44C111.492 20.2667 111.546 20.14 111.652 20.06C111.759 19.9667 111.899 19.92 112.072 19.92H114.852V7.88H115.552L112.652 9.86C112.519 9.95333 112.392 10 112.272 10C112.152 9.98667 112.052 9.94 111.972 9.86C111.892 9.78 111.832 9.68667 111.792 9.58C111.766 9.47333 111.772 9.36 111.812 9.24C111.852 9.12 111.939 9.02 112.072 8.94L114.832 7.02C114.966 6.94 115.086 6.88 115.192 6.84C115.299 6.8 115.419 6.78 115.552 6.78C115.699 6.78 115.819 6.82667 115.912 6.92C116.019 7 116.072 7.14 116.072 7.34V19.92H118.652C118.839 19.92 118.979 19.9667 119.072 20.06C119.179 20.14 119.232 20.2667 119.232 20.44C119.232 20.6267 119.179 20.7667 119.072 20.86C118.979 20.9533 118.839 21 118.652 21H112.072ZM132.403 21.16C131.617 21.16 130.837 21.04 130.063 20.8C129.303 20.5467 128.617 20.1667 128.003 19.66C127.897 19.5667 127.823 19.4667 127.783 19.36C127.757 19.24 127.757 19.1267 127.783 19.02C127.823 18.9 127.883 18.8067 127.963 18.74C128.043 18.66 128.143 18.62 128.263 18.62C128.397 18.6067 128.53 18.6533 128.663 18.76C129.223 19.2 129.817 19.5267 130.443 19.74C131.07 19.94 131.723 20.04 132.403 20.04C133.097 20.04 133.69 19.9067 134.183 19.64C134.69 19.36 135.077 18.98 135.343 18.5C135.623 18.0067 135.763 17.44 135.763 16.8C135.763 15.7867 135.477 14.96 134.903 14.32C134.33 13.68 133.543 13.36 132.543 13.36C131.89 13.36 131.303 13.48 130.783 13.72C130.277 13.96 129.817 14.3467 129.403 14.88C129.337 14.9867 129.25 15.0733 129.143 15.14C129.05 15.2067 128.937 15.24 128.803 15.24C128.617 15.24 128.47 15.1867 128.363 15.08C128.27 14.9733 128.223 14.8333 128.223 14.66V7.5C128.223 7.3 128.277 7.15333 128.383 7.06C128.49 6.95333 128.637 6.9 128.823 6.9H135.703C135.903 6.9 136.05 6.94667 136.143 7.04C136.25 7.13333 136.303 7.26667 136.303 7.44C136.303 7.61333 136.25 7.74667 136.143 7.84C136.05 7.93333 135.903 7.98 135.703 7.98H129.443V14.1H129.083C129.43 13.5133 129.923 13.06 130.563 12.74C131.203 12.4067 131.917 12.24 132.703 12.24C133.583 12.24 134.343 12.4267 134.983 12.8C135.623 13.1733 136.117 13.6933 136.463 14.36C136.823 15.0267 137.003 15.8067 137.003 16.7C137.003 17.58 136.817 18.3533 136.443 19.02C136.07 19.6867 135.537 20.2133 134.843 20.6C134.163 20.9733 133.35 21.16 132.403 21.16ZM144.016 21.16C142.989 21.16 142.102 21.0133 141.356 20.72C140.622 20.4133 140.056 19.9733 139.656 19.4C139.269 18.8133 139.076 18.1133 139.076 17.3C139.076 16.6333 139.209 16.0467 139.476 15.54C139.756 15.0333 140.136 14.62 140.616 14.3C141.096 13.98 141.649 13.78 142.276 13.7V13.94C141.396 13.7533 140.696 13.3467 140.176 12.72C139.669 12.08 139.416 11.3267 139.416 10.46C139.416 9.67333 139.602 9.00667 139.976 8.46C140.362 7.9 140.902 7.47333 141.596 7.18C142.289 6.88667 143.096 6.74 144.016 6.74C144.949 6.74 145.756 6.88667 146.436 7.18C147.129 7.47333 147.662 7.9 148.036 8.46C148.422 9.00667 148.616 9.67333 148.616 10.46C148.616 11.0333 148.496 11.56 148.256 12.04C148.029 12.52 147.702 12.9267 147.276 13.26C146.862 13.58 146.356 13.8067 145.756 13.94V13.7C146.716 13.8333 147.489 14.22 148.076 14.86C148.662 15.5 148.956 16.3133 148.956 17.3C148.956 18.1133 148.756 18.8133 148.356 19.4C147.969 19.9733 147.409 20.4133 146.676 20.72C145.942 21.0133 145.056 21.16 144.016 21.16ZM144.016 20.1C145.242 20.1 146.162 19.8667 146.776 19.4C147.402 18.92 147.716 18.2 147.716 17.24C147.716 16.28 147.402 15.5667 146.776 15.1C146.162 14.6333 145.242 14.4 144.016 14.4C142.802 14.4 141.882 14.6333 141.256 15.1C140.629 15.5667 140.316 16.28 140.316 17.24C140.316 18.2 140.629 18.92 141.256 19.4C141.882 19.8667 142.802 20.1 144.016 20.1ZM144.016 13.32C144.722 13.32 145.322 13.2133 145.816 13C146.322 12.7733 146.709 12.4533 146.976 12.04C147.256 11.6133 147.396 11.1133 147.396 10.54C147.396 9.67333 147.096 9 146.496 8.52C145.909 8.04 145.082 7.8 144.016 7.8C142.962 7.8 142.136 8.04 141.536 8.52C140.936 9 140.636 9.67333 140.636 10.54C140.636 11.4067 140.936 12.0867 141.536 12.58C142.136 13.0733 142.962 13.32 144.016 13.32ZM153.088 21C152.914 21 152.774 20.9533 152.668 20.86C152.561 20.7533 152.508 20.6133 152.508 20.44C152.508 20.2667 152.561 20.14 152.668 20.06C152.774 19.9667 152.914 19.92 153.088 19.92H155.868V7.88H156.568L153.668 9.86C153.534 9.95333 153.408 10 153.288 10C153.168 9.98667 153.068 9.94 152.988 9.86C152.908 9.78 152.848 9.68667 152.808 9.58C152.781 9.47333 152.788 9.36 152.828 9.24C152.868 9.12 152.954 9.02 153.088 8.94L155.848 7.02C155.981 6.94 156.101 6.88 156.208 6.84C156.314 6.8 156.434 6.78 156.568 6.78C156.714 6.78 156.834 6.82667 156.928 6.92C157.034 7 157.088 7.14 157.088 7.34V19.92H159.668C159.854 19.92 159.994 19.9667 160.088 20.06C160.194 20.14 160.248 20.2667 160.248 20.44C160.248 20.6267 160.194 20.7667 160.088 20.86C159.994 20.9533 159.854 21 159.668 21H153.088ZM173.519 21.16C172.426 21.16 171.499 20.8933 170.739 20.36C169.979 19.8267 169.399 19.0533 168.999 18.04C168.612 17.0133 168.419 15.78 168.419 14.34C168.419 13.1133 168.539 12.0267 168.779 11.08C169.032 10.1333 169.399 9.34 169.879 8.7C170.359 8.06 170.939 7.57333 171.619 7.24C172.312 6.90667 173.092 6.74 173.959 6.74C174.586 6.74 175.232 6.87333 175.899 7.14C176.566 7.39333 177.139 7.76667 177.619 8.26C177.726 8.35333 177.792 8.46 177.819 8.58C177.846 8.7 177.839 8.81333 177.799 8.92C177.759 9.02667 177.699 9.12 177.619 9.2C177.539 9.26667 177.439 9.3 177.319 9.3C177.199 9.28667 177.079 9.22667 176.959 9.12C176.506 8.68 176.019 8.36 175.499 8.16C174.979 7.96 174.459 7.86 173.939 7.86C173.019 7.86 172.239 8.09333 171.599 8.56C170.959 9.01333 170.472 9.70667 170.139 10.64C169.806 11.56 169.639 12.7133 169.639 14.1V16.12H169.499C169.566 15.32 169.786 14.6333 170.159 14.06C170.532 13.4733 171.019 13.0267 171.619 12.72C172.219 12.4 172.886 12.24 173.619 12.24C174.459 12.24 175.199 12.4267 175.839 12.8C176.492 13.1733 176.999 13.6933 177.359 14.36C177.732 15.0267 177.919 15.7933 177.919 16.66C177.919 17.5267 177.732 18.3067 177.359 19C176.986 19.68 176.466 20.2133 175.799 20.6C175.132 20.9733 174.372 21.16 173.519 21.16ZM173.419 20.06C174.059 20.06 174.626 19.92 175.119 19.64C175.612 19.36 175.992 18.9667 176.259 18.46C176.539 17.9533 176.679 17.3667 176.679 16.7C176.679 16.0333 176.539 15.4533 176.259 14.96C175.992 14.4533 175.612 14.06 175.119 13.78C174.626 13.4867 174.059 13.34 173.419 13.34C172.779 13.34 172.212 13.4867 171.719 13.78C171.226 14.06 170.839 14.4533 170.559 14.96C170.292 15.4533 170.159 16.0333 170.159 16.7C170.159 17.3667 170.292 17.9533 170.559 18.46C170.839 18.9667 171.226 19.36 171.719 19.64C172.212 19.92 172.779 20.06 173.419 20.06ZM182.111 21C181.938 21 181.798 20.9533 181.691 20.86C181.585 20.7533 181.531 20.6133 181.531 20.44C181.531 20.2667 181.585 20.14 181.691 20.06C181.798 19.9667 181.938 19.92 182.111 19.92H184.891V7.88H185.591L182.691 9.86C182.558 9.95333 182.431 10 182.311 10C182.191 9.98667 182.091 9.94 182.011 9.86C181.931 9.78 181.871 9.68667 181.831 9.58C181.805 9.47333 181.811 9.36 181.851 9.24C181.891 9.12 181.978 9.02 182.111 8.94L184.871 7.02C185.005 6.94 185.125 6.88 185.231 6.84C185.338 6.8 185.458 6.78 185.591 6.78C185.738 6.78 185.858 6.82667 185.951 6.92C186.058 7 186.111 7.14 186.111 7.34V19.92H188.691C188.878 19.92 189.018 19.9667 189.111 20.06C189.218 20.14 189.271 20.2667 189.271 20.44C189.271 20.6267 189.218 20.7667 189.111 20.86C189.018 20.9533 188.878 21 188.691 21H182.111ZM197.023 21.16C195.997 21.16 195.11 21.0133 194.363 20.72C193.63 20.4133 193.063 19.9733 192.663 19.4C192.277 18.8133 192.083 18.1133 192.083 17.3C192.083 16.6333 192.217 16.0467 192.483 15.54C192.763 15.0333 193.143 14.62 193.623 14.3C194.103 13.98 194.657 13.78 195.283 13.7V13.94C194.403 13.7533 193.703 13.3467 193.183 12.72C192.677 12.08 192.423 11.3267 192.423 10.46C192.423 9.67333 192.61 9.00667 192.983 8.46C193.37 7.9 193.91 7.47333 194.603 7.18C195.297 6.88667 196.103 6.74 197.023 6.74C197.957 6.74 198.763 6.88667 199.443 7.18C200.137 7.47333 200.67 7.9 201.043 8.46C201.43 9.00667 201.623 9.67333 201.623 10.46C201.623 11.0333 201.503 11.56 201.263 12.04C201.037 12.52 200.71 12.9267 200.283 13.26C199.87 13.58 199.363 13.8067 198.763 13.94V13.7C199.723 13.8333 200.497 14.22 201.083 14.86C201.67 15.5 201.963 16.3133 201.963 17.3C201.963 18.1133 201.763 18.8133 201.363 19.4C200.977 19.9733 200.417 20.4133 199.683 20.72C198.95 21.0133 198.063 21.16 197.023 21.16ZM197.023 20.1C198.25 20.1 199.17 19.8667 199.783 19.4C200.41 18.92 200.723 18.2 200.723 17.24C200.723 16.28 200.41 15.5667 199.783 15.1C199.17 14.6333 198.25 14.4 197.023 14.4C195.81 14.4 194.89 14.6333 194.263 15.1C193.637 15.5667 193.323 16.28 193.323 17.24C193.323 18.2 193.637 18.92 194.263 19.4C194.89 19.8667 195.81 20.1 197.023 20.1ZM197.023 13.32C197.73 13.32 198.33 13.2133 198.823 13C199.33 12.7733 199.717 12.4533 199.983 12.04C200.263 11.6133 200.403 11.1133 200.403 10.54C200.403 9.67333 200.103 9 199.503 8.52C198.917 8.04 198.09 7.8 197.023 7.8C195.97 7.8 195.143 8.04 194.543 8.52C193.943 9 193.643 9.67333 193.643 10.54C193.643 11.4067 193.943 12.0867 194.543 12.58C195.143 13.0733 195.97 13.32 197.023 13.32ZM211.436 21.12C211.236 21.12 211.082 21.0667 210.976 20.96C210.869 20.8533 210.816 20.7 210.816 20.5V17.82H204.716C204.516 17.82 204.356 17.7733 204.236 17.68C204.129 17.5733 204.076 17.4267 204.076 17.24C204.076 17.1333 204.096 17.0267 204.136 16.92C204.189 16.8 204.269 16.66 204.376 16.5L210.756 7.18C210.849 7.04667 210.949 6.94667 211.056 6.88C211.176 6.81333 211.309 6.78 211.456 6.78C211.629 6.78 211.769 6.83333 211.876 6.94C211.996 7.03333 212.056 7.18667 212.056 7.4V16.74H213.736C213.936 16.74 214.082 16.7867 214.176 16.88C214.282 16.9733 214.336 17.1067 214.336 17.28C214.336 17.4533 214.282 17.5867 214.176 17.68C214.082 17.7733 213.936 17.82 213.736 17.82H212.056V20.5C212.056 20.7 212.002 20.8533 211.896 20.96C211.789 21.0667 211.636 21.12 211.436 21.12ZM210.816 16.74V8.3H211.256L205.236 17.08V16.74H210.816Z" fill="#00D6CB"/>
<path d="M12 2C5.37266 2 0 7.37266 0 14C0 20.6273 5.37266 26 12 26C18.6273 26 24 20.6273 24 14C23.9926 7.37578 18.6242 2.00742 12 2ZM12 25.2C5.81445 25.2 0.8 20.1855 0.8 14C0.8 7.81445 5.81445 2.8 12 2.8C18.1855 2.8 23.2 7.81445 23.2 14C23.193 20.1826 18.1826 25.193 12 25.2Z" fill="#00D6CB"/>
<path d="M17.2588 15.4633L13.8637 14.8633C13.6918 14.8331 13.5203 14.9174 13.4396 15.0721L12.6164 16.6497C11.1598 16.0045 9.9957 14.8399 9.35117 13.3829L10.9271 12.5596C11.0818 12.479 11.1662 12.3075 11.1359 12.1356L10.5359 8.74087C10.5172 8.63403 10.4559 8.5395 10.366 8.47876C9.50762 7.89985 8.3998 7.84165 7.48555 8.32759C6.57129 8.81372 6 9.7647 6 10.8C6.00566 15.8788 10.1213 19.9944 15.2 20C16.2355 19.9999 17.1865 19.4282 17.6725 18.5137C18.1582 17.5991 18.0996 16.4911 17.5199 15.6329C17.4594 15.5434 17.3652 15.4821 17.2588 15.4633ZM15.2 19.2C10.5631 19.1948 6.80527 15.437 6.8 10.8C6.7998 10.0895 7.17676 9.43227 7.79004 9.07329C8.40332 8.7145 9.16113 8.70806 9.78047 9.05649L10.2977 11.9868L8.65762 12.8428C8.47793 12.9366 8.39668 13.1497 8.46836 13.3393C9.19961 15.2737 10.7262 16.8012 12.6604 17.5333C12.85 17.6049 13.0631 17.5237 13.1568 17.344L14.0133 15.704L16.9436 16.2213C17.2912 16.8405 17.2842 17.5975 16.9256 18.2104C16.5668 18.8231 15.9102 19.1999 15.2 19.2Z" fill="#00D6CB"/>
</svg>
