<svg width="165" height="30" viewBox="0 0 165 30" fill="none" xmlns="http://www.w3.org/2000/svg">
<path d="M34.22 20.08C34.02 20.08 33.8667 20.02 33.76 19.9C33.6533 19.78 33.6 19.62 33.6 19.42V10.86C33.6 10.6467 33.6533 10.4867 33.76 10.38C33.8667 10.2733 34.02 10.22 34.22 10.22C34.4067 10.22 34.5533 10.2733 34.66 10.38C34.7667 10.4867 34.82 10.6467 34.82 10.86V19.42C34.82 19.62 34.7667 19.78 34.66 19.9C34.5667 20.02 34.42 20.08 34.22 20.08ZM34.22 7.8C33.94 7.8 33.72 7.72667 33.56 7.58C33.4133 7.43333 33.34 7.22667 33.34 6.96C33.34 6.69333 33.4133 6.49333 33.56 6.36C33.72 6.21333 33.94 6.14 34.22 6.14C34.5 6.14 34.7133 6.21333 34.86 6.36C35.02 6.49333 35.1 6.69333 35.1 6.96C35.1 7.22667 35.02 7.43333 34.86 7.58C34.7133 7.72667 34.5 7.8 34.22 7.8ZM38.6536 20.12C38.4536 20.12 38.3003 20.0667 38.1936 19.96C38.0869 19.8533 38.0336 19.7 38.0336 19.5V10.8C38.0336 10.5867 38.0869 10.4267 38.1936 10.32C38.3003 10.2133 38.4536 10.16 38.6536 10.16C38.8403 10.16 38.9803 10.2133 39.0736 10.32C39.1803 10.4267 39.2336 10.5867 39.2336 10.8V12.68L39.0136 12.56C39.2803 11.76 39.7336 11.1533 40.3736 10.74C41.0269 10.3267 41.7736 10.12 42.6136 10.12C43.3869 10.12 44.0269 10.26 44.5336 10.54C45.0536 10.8067 45.4403 11.22 45.6936 11.78C45.9469 12.34 46.0736 13.04 46.0736 13.88V19.5C46.0736 19.7 46.0203 19.8533 45.9136 19.96C45.8069 20.0667 45.6603 20.12 45.4736 20.12C45.2736 20.12 45.1203 20.0667 45.0136 19.96C44.9069 19.8533 44.8536 19.7 44.8536 19.5V13.98C44.8536 13.0067 44.6603 12.3 44.2736 11.86C43.8869 11.4067 43.2736 11.18 42.4336 11.18C41.4736 11.18 40.7003 11.48 40.1136 12.08C39.5403 12.6667 39.2536 13.46 39.2536 14.46V19.5C39.2536 19.9133 39.0536 20.12 38.6536 20.12ZM50.305 20.12C50.105 20.12 49.9517 20.0667 49.845 19.96C49.7383 19.8533 49.685 19.7 49.685 19.5V11.28H48.265C48.0917 11.28 47.9517 11.24 47.845 11.16C47.7517 11.0667 47.705 10.94 47.705 10.78C47.705 10.6333 47.7517 10.52 47.845 10.44C47.9517 10.3467 48.0917 10.3 48.265 10.3H50.005L49.685 10.62V9.82C49.685 8.59333 49.9783 7.65333 50.565 7C51.1517 6.34667 52.025 5.96667 53.185 5.86L53.725 5.82C53.8717 5.80667 53.985 5.83333 54.065 5.9C54.1583 5.95333 54.2183 6.02667 54.245 6.12C54.285 6.21333 54.2917 6.31333 54.265 6.42C54.2383 6.51333 54.185 6.6 54.105 6.68C54.0383 6.74667 53.9517 6.78667 53.845 6.8L53.285 6.86C52.4583 6.92667 51.8517 7.2 51.465 7.68C51.0917 8.14667 50.905 8.82667 50.905 9.72V10.58L50.725 10.3H53.285C53.4717 10.3 53.6117 10.3467 53.705 10.44C53.7983 10.52 53.845 10.6333 53.845 10.78C53.845 10.94 53.7983 11.0667 53.705 11.16C53.6117 11.24 53.4717 11.28 53.285 11.28H50.905V19.5C50.905 19.9133 50.705 20.12 50.305 20.12ZM59.1788 20.16C58.2721 20.16 57.4854 19.9533 56.8188 19.54C56.1521 19.1267 55.6321 18.5467 55.2588 17.8C54.8988 17.0533 54.7188 16.1667 54.7188 15.14C54.7188 14.38 54.8188 13.6933 55.0188 13.08C55.2321 12.4667 55.5321 11.94 55.9188 11.5C56.3188 11.0467 56.7921 10.7067 57.3388 10.48C57.8988 10.24 58.5121 10.12 59.1788 10.12C60.0988 10.12 60.8921 10.3267 61.5588 10.74C62.2254 11.1533 62.7388 11.74 63.0988 12.5C63.4721 13.2467 63.6588 14.1267 63.6588 15.14C63.6588 15.9133 63.5521 16.6067 63.3388 17.22C63.1388 17.8333 62.8388 18.36 62.4388 18.8C62.0521 19.24 61.5854 19.58 61.0388 19.82C60.4921 20.0467 59.8721 20.16 59.1788 20.16ZM59.1788 19.14C59.8454 19.14 60.4188 18.9867 60.8988 18.68C61.3921 18.36 61.7654 17.9 62.0188 17.3C62.2854 16.7 62.4188 15.98 62.4188 15.14C62.4188 13.8733 62.1254 12.8933 61.5388 12.2C60.9654 11.5067 60.1788 11.16 59.1788 11.16C58.5254 11.16 57.9521 11.32 57.4588 11.64C56.9788 11.9467 56.6054 12.4 56.3388 13C56.0854 13.5867 55.9588 14.3 55.9588 15.14C55.9588 16.42 56.2521 17.4067 56.8388 18.1C57.4254 18.7933 58.2054 19.14 59.1788 19.14ZM74.3363 23.26C73.0696 23.26 71.9163 23.0533 70.8763 22.64C69.8496 22.24 68.9696 21.6533 68.2363 20.88C67.5029 20.12 66.9363 19.2067 66.5363 18.14C66.1363 17.06 65.9363 15.8467 65.9363 14.5C65.9363 13.2067 66.1429 12.0267 66.5563 10.96C66.9696 9.88 67.5629 8.95333 68.3363 8.18C69.1096 7.39333 70.0229 6.79333 71.0763 6.38C72.1429 5.95333 73.3096 5.74 74.5763 5.74C76.0963 5.74 77.4296 6.05333 78.5763 6.68C79.7363 7.29333 80.6429 8.15333 81.2963 9.26C81.9496 10.3533 82.2763 11.6333 82.2763 13.1C82.2763 14.26 82.1163 15.2667 81.7963 16.12C81.4763 16.9733 81.0296 17.64 80.4563 18.12C79.8963 18.5867 79.2363 18.82 78.4763 18.82C77.7029 18.82 77.1163 18.5867 76.7163 18.12C76.3296 17.6533 76.1829 17.0267 76.2763 16.24L76.5563 16.5C76.2096 17.2333 75.7296 17.8067 75.1163 18.22C74.5163 18.62 73.8829 18.82 73.2163 18.82C72.2029 18.82 71.4163 18.5067 70.8563 17.88C70.2963 17.24 70.0163 16.36 70.0163 15.24C70.0163 14.2533 70.2029 13.3733 70.5763 12.6C70.9496 11.8267 71.4629 11.22 72.1163 10.78C72.7829 10.34 73.5296 10.12 74.3563 10.12C75.0896 10.12 75.6896 10.3067 76.1563 10.68C76.6363 11.04 76.9363 11.5467 77.0563 12.2H76.8763L77.1163 10.74C77.1829 10.38 77.3896 10.2 77.7363 10.2C77.9096 10.2 78.0363 10.2533 78.1163 10.36C78.1963 10.4533 78.2229 10.6 78.1963 10.8L77.3563 15.64C77.3296 15.8 77.3096 15.96 77.2963 16.12C77.2829 16.2667 77.2763 16.4 77.2763 16.52C77.2763 16.9867 77.3829 17.34 77.5963 17.58C77.8096 17.8067 78.1296 17.92 78.5563 17.92C79.1029 17.92 79.5829 17.72 79.9963 17.32C80.4096 16.92 80.7296 16.36 80.9563 15.64C81.1963 14.9067 81.3163 14.06 81.3163 13.1C81.3163 11.82 81.0296 10.7 80.4563 9.74C79.8829 8.78 79.0896 8.03333 78.0763 7.5C77.0629 6.95333 75.8896 6.68 74.5563 6.68C73.0496 6.68 71.7296 7.00667 70.5963 7.66C69.4629 8.31333 68.5763 9.22667 67.9363 10.4C67.2963 11.5733 66.9763 12.94 66.9763 14.5C66.9763 16.1267 67.2763 17.5267 67.8763 18.7C68.4896 19.86 69.3429 20.7467 70.4363 21.36C71.5429 21.9867 72.8429 22.3 74.3363 22.3C75.3629 22.3 76.2896 22.1467 77.1163 21.84C77.9563 21.5333 78.6496 21.12 79.1963 20.6C79.3563 20.4667 79.5029 20.4 79.6363 20.4C79.7696 20.4133 79.8763 20.4667 79.9563 20.56C80.0496 20.6533 80.0896 20.7667 80.0763 20.9C80.0763 21.0467 80.0029 21.1933 79.8563 21.34C79.2296 21.9267 78.4429 22.3933 77.4963 22.74C76.5629 23.0867 75.5096 23.26 74.3363 23.26ZM73.3163 17.86C73.9429 17.86 74.5029 17.6733 74.9963 17.3C75.5029 16.9133 75.8963 16.3933 76.1763 15.74C76.4696 15.0733 76.6163 14.32 76.6163 13.48C76.6163 12.68 76.4363 12.0867 76.0763 11.7C75.7163 11.3 75.1696 11.1 74.4363 11.1C73.8096 11.1 73.2429 11.28 72.7363 11.64C72.2429 11.9867 71.8496 12.4733 71.5563 13.1C71.2629 13.7133 71.1163 14.42 71.1163 15.22C71.1163 16.0733 71.3096 16.7267 71.6963 17.18C72.0829 17.6333 72.6229 17.86 73.3163 17.86ZM85.7825 20.08C85.5825 20.08 85.4292 20.02 85.3225 19.9C85.2158 19.78 85.1625 19.62 85.1625 19.42V10.86C85.1625 10.6467 85.2158 10.4867 85.3225 10.38C85.4292 10.2733 85.5825 10.22 85.7825 10.22C85.9692 10.22 86.1158 10.2733 86.2225 10.38C86.3292 10.4867 86.3825 10.6467 86.3825 10.86V19.42C86.3825 19.62 86.3292 19.78 86.2225 19.9C86.1292 20.02 85.9825 20.08 85.7825 20.08ZM85.7825 7.8C85.5025 7.8 85.2825 7.72667 85.1225 7.58C84.9758 7.43333 84.9025 7.22667 84.9025 6.96C84.9025 6.69333 84.9758 6.49333 85.1225 6.36C85.2825 6.21333 85.5025 6.14 85.7825 6.14C86.0625 6.14 86.2758 6.21333 86.4225 6.36C86.5825 6.49333 86.6625 6.69333 86.6625 6.96C86.6625 7.22667 86.5825 7.43333 86.4225 7.58C86.2758 7.72667 86.0625 7.8 85.7825 7.8ZM92.5961 20.16C91.9428 20.16 91.3561 20.0333 90.8361 19.78C90.3294 19.5267 89.9228 19.18 89.6161 18.74C89.3228 18.3 89.1761 17.8067 89.1761 17.26C89.1761 16.54 89.3561 15.9733 89.7161 15.56C90.0761 15.1467 90.6828 14.86 91.5361 14.7C92.3894 14.5267 93.5628 14.44 95.0561 14.44H95.9161V15.34H95.0761C93.8761 15.34 92.9361 15.3933 92.2561 15.5C91.5894 15.5933 91.1228 15.7733 90.8561 16.04C90.5894 16.3067 90.4561 16.68 90.4561 17.16C90.4561 17.76 90.6628 18.2467 91.0761 18.62C91.4894 18.9933 92.0494 19.18 92.7561 19.18C93.3294 19.18 93.8294 19.0467 94.2561 18.78C94.6961 18.5 95.0428 18.12 95.2961 17.64C95.5494 17.16 95.6761 16.6133 95.6761 16V13.72C95.6761 12.8267 95.4961 12.18 95.1361 11.78C94.7761 11.3667 94.2028 11.16 93.4161 11.16C92.9094 11.16 92.4161 11.2267 91.9361 11.36C91.4694 11.4933 90.9694 11.7067 90.4361 12C90.2894 12.08 90.1561 12.1067 90.0361 12.08C89.9294 12.0533 89.8428 12 89.7761 11.92C89.7228 11.84 89.6828 11.7467 89.6561 11.64C89.6428 11.52 89.6628 11.4067 89.7161 11.3C89.7694 11.1933 89.8628 11.1067 89.9961 11.04C90.5561 10.7333 91.1228 10.5067 91.6961 10.36C92.2828 10.2 92.8494 10.12 93.3961 10.12C94.1828 10.12 94.8294 10.2533 95.3361 10.52C95.8561 10.7867 96.2361 11.1867 96.4761 11.72C96.7294 12.2533 96.8561 12.94 96.8561 13.78V19.5C96.8561 19.7 96.8094 19.8533 96.7161 19.96C96.6228 20.0667 96.4828 20.12 96.2961 20.12C96.1094 20.12 95.9628 20.0667 95.8561 19.96C95.7494 19.8533 95.6961 19.7 95.6961 19.5V17.66H95.8961C95.7761 18.18 95.5628 18.6267 95.2561 19C94.9494 19.3733 94.5694 19.66 94.1161 19.86C93.6628 20.06 93.1561 20.16 92.5961 20.16ZM104.265 20.16C103.265 20.16 102.405 19.96 101.685 19.56C100.965 19.16 100.412 18.5867 100.025 17.84C99.6386 17.0933 99.4453 16.2067 99.4453 15.18C99.4453 14.1667 99.6386 13.2867 100.025 12.54C100.412 11.78 100.945 11.1867 101.625 10.76C102.319 10.3333 103.112 10.12 104.005 10.12C104.659 10.12 105.232 10.2333 105.725 10.46C106.232 10.6733 106.659 10.9867 107.005 11.4C107.365 11.8 107.639 12.2933 107.825 12.88C108.012 13.4533 108.105 14.1067 108.105 14.84C108.105 15.0267 108.052 15.1667 107.945 15.26C107.852 15.3533 107.719 15.4 107.545 15.4H100.325V14.5H107.345L107.025 14.76C107.025 13.9867 106.912 13.3333 106.685 12.8C106.459 12.2533 106.119 11.8333 105.665 11.54C105.225 11.2467 104.679 11.1 104.025 11.1C103.292 11.1 102.672 11.2733 102.165 11.62C101.659 11.9533 101.279 12.42 101.025 13.02C100.772 13.6067 100.645 14.2867 100.645 15.06V15.16C100.645 16.44 100.959 17.4267 101.585 18.12C102.212 18.8 103.092 19.14 104.225 19.14C104.719 19.14 105.192 19.0733 105.645 18.94C106.112 18.8067 106.565 18.58 107.005 18.26C107.139 18.1667 107.265 18.12 107.385 18.12C107.519 18.12 107.625 18.1533 107.705 18.22C107.799 18.2867 107.859 18.3733 107.885 18.48C107.925 18.5733 107.919 18.68 107.865 18.8C107.825 18.9067 107.739 19.0067 107.605 19.1C107.179 19.4467 106.665 19.7133 106.065 19.9C105.465 20.0733 104.865 20.16 104.265 20.16ZM111.192 20.06C110.926 20.06 110.706 19.9733 110.532 19.8C110.359 19.6267 110.272 19.4067 110.272 19.14C110.272 18.8733 110.359 18.6533 110.532 18.48C110.706 18.3067 110.926 18.22 111.192 18.22C111.472 18.22 111.692 18.3067 111.852 18.48C112.026 18.6533 112.112 18.8733 112.112 19.14C112.112 19.4067 112.026 19.6267 111.852 19.8C111.692 19.9733 111.472 20.06 111.192 20.06ZM118.718 23.76C117.998 23.76 117.298 23.6667 116.618 23.48C115.952 23.3067 115.345 23.02 114.798 22.62C114.692 22.5533 114.618 22.4667 114.578 22.36C114.552 22.2533 114.552 22.1467 114.578 22.04C114.605 21.9467 114.652 21.86 114.718 21.78C114.798 21.7 114.885 21.6533 114.978 21.64C115.085 21.6267 115.192 21.6467 115.298 21.7C115.885 22.0867 116.445 22.3533 116.978 22.5C117.525 22.66 118.092 22.74 118.678 22.74C119.652 22.74 120.392 22.4667 120.898 21.92C121.405 21.3867 121.658 20.62 121.658 19.62V17.14H121.858C121.658 17.9667 121.232 18.6133 120.578 19.08C119.925 19.5467 119.152 19.78 118.258 19.78C117.365 19.78 116.592 19.58 115.938 19.18C115.285 18.7667 114.778 18.2 114.418 17.48C114.072 16.7467 113.898 15.9 113.898 14.94C113.898 14.22 113.998 13.5667 114.198 12.98C114.398 12.3933 114.685 11.8867 115.058 11.46C115.445 11.0333 115.905 10.7067 116.438 10.48C116.972 10.24 117.578 10.12 118.258 10.12C119.152 10.12 119.925 10.36 120.578 10.84C121.232 11.3067 121.652 11.94 121.838 12.74L121.638 12.86V10.8C121.638 10.5867 121.692 10.4267 121.798 10.32C121.905 10.2133 122.052 10.16 122.238 10.16C122.438 10.16 122.585 10.2133 122.678 10.32C122.785 10.4267 122.838 10.5867 122.838 10.8V19.44C122.838 20.8667 122.492 21.94 121.798 22.66C121.105 23.3933 120.078 23.76 118.718 23.76ZM118.398 18.74C119.065 18.74 119.638 18.5867 120.118 18.28C120.612 17.96 120.992 17.52 121.258 16.96C121.525 16.3867 121.658 15.7133 121.658 14.94C121.658 13.78 121.365 12.86 120.778 12.18C120.192 11.5 119.398 11.16 118.398 11.16C117.732 11.16 117.152 11.3133 116.658 11.62C116.165 11.9267 115.785 12.3667 115.518 12.94C115.265 13.5 115.138 14.1667 115.138 14.94C115.138 16.1 115.432 17.0267 116.018 17.72C116.605 18.4 117.398 18.74 118.398 18.74ZM126.681 20.12C126.481 20.12 126.328 20.0667 126.221 19.96C126.114 19.8533 126.061 19.7 126.061 19.5V10.8C126.061 10.5867 126.114 10.4267 126.221 10.32C126.328 10.2133 126.481 10.16 126.681 10.16C126.868 10.16 127.008 10.2133 127.101 10.32C127.208 10.4267 127.261 10.5867 127.261 10.8V12.58H127.061C127.301 11.7933 127.728 11.1867 128.341 10.76C128.968 10.3333 129.714 10.1133 130.581 10.1C130.741 10.0867 130.874 10.12 130.981 10.2C131.088 10.28 131.141 10.4067 131.141 10.58C131.154 10.7667 131.114 10.9133 131.021 11.02C130.928 11.1133 130.774 11.1733 130.561 11.2L130.281 11.22C129.334 11.3133 128.601 11.6267 128.081 12.16C127.561 12.6933 127.301 13.4133 127.301 14.32V19.5C127.301 19.7 127.248 19.8533 127.141 19.96C127.048 20.0667 126.894 20.12 126.681 20.12ZM136.64 20.16C135.733 20.16 134.946 19.9533 134.28 19.54C133.613 19.1267 133.093 18.5467 132.72 17.8C132.36 17.0533 132.18 16.1667 132.18 15.14C132.18 14.38 132.28 13.6933 132.48 13.08C132.693 12.4667 132.993 11.94 133.38 11.5C133.78 11.0467 134.253 10.7067 134.8 10.48C135.36 10.24 135.973 10.12 136.64 10.12C137.56 10.12 138.353 10.3267 139.02 10.74C139.686 11.1533 140.2 11.74 140.56 12.5C140.933 13.2467 141.12 14.1267 141.12 15.14C141.12 15.9133 141.013 16.6067 140.8 17.22C140.6 17.8333 140.3 18.36 139.9 18.8C139.513 19.24 139.046 19.58 138.5 19.82C137.953 20.0467 137.333 20.16 136.64 20.16ZM136.64 19.14C137.306 19.14 137.88 18.9867 138.36 18.68C138.853 18.36 139.226 17.9 139.48 17.3C139.746 16.7 139.88 15.98 139.88 15.14C139.88 13.8733 139.586 12.8933 139 12.2C138.426 11.5067 137.64 11.16 136.64 11.16C135.986 11.16 135.413 11.32 134.92 11.64C134.44 11.9467 134.066 12.4 133.8 13C133.546 13.5867 133.42 14.3 133.42 15.14C133.42 16.42 133.713 17.4067 134.3 18.1C134.886 18.7933 135.666 19.14 136.64 19.14ZM147.137 20.16C146.364 20.16 145.717 20.02 145.197 19.74C144.691 19.46 144.311 19.04 144.057 18.48C143.804 17.92 143.677 17.2267 143.677 16.4V10.8C143.677 10.5867 143.731 10.4267 143.837 10.32C143.944 10.2133 144.097 10.16 144.297 10.16C144.484 10.16 144.631 10.2133 144.737 10.32C144.844 10.4267 144.897 10.5867 144.897 10.8V16.34C144.897 17.2733 145.091 17.9733 145.477 18.44C145.864 18.8933 146.471 19.12 147.297 19.12C148.204 19.12 148.937 18.82 149.497 18.22C150.057 17.6067 150.337 16.8067 150.337 15.82V10.8C150.337 10.5867 150.391 10.4267 150.497 10.32C150.604 10.2133 150.757 10.16 150.957 10.16C151.144 10.16 151.291 10.2133 151.397 10.32C151.504 10.4267 151.557 10.5867 151.557 10.8V19.5C151.557 19.9133 151.364 20.12 150.977 20.12C150.791 20.12 150.644 20.0667 150.537 19.96C150.431 19.8533 150.377 19.7 150.377 19.5V17.52L150.617 17.66C150.364 18.4733 149.924 19.0933 149.297 19.52C148.671 19.9467 147.951 20.16 147.137 20.16ZM155.392 23.72C155.192 23.72 155.039 23.6667 154.932 23.56C154.825 23.4533 154.772 23.3 154.772 23.1V10.8C154.772 10.5867 154.825 10.4267 154.932 10.32C155.039 10.2133 155.192 10.16 155.392 10.16C155.579 10.16 155.725 10.2133 155.832 10.32C155.939 10.4267 155.992 10.5867 155.992 10.8V12.84L155.772 12.72C155.999 11.92 156.432 11.2867 157.072 10.82C157.712 10.3533 158.485 10.12 159.392 10.12C160.259 10.12 161.012 10.3267 161.652 10.74C162.305 11.1533 162.805 11.7333 163.152 12.48C163.512 13.2267 163.692 14.1133 163.692 15.14C163.692 16.1667 163.512 17.06 163.152 17.82C162.805 18.5667 162.312 19.1467 161.672 19.56C161.032 19.96 160.272 20.16 159.392 20.16C158.485 20.16 157.712 19.9267 157.072 19.46C156.432 18.9933 155.999 18.3733 155.772 17.6H155.992V23.1C155.992 23.3 155.939 23.4533 155.832 23.56C155.725 23.6667 155.579 23.72 155.392 23.72ZM159.212 19.14C159.865 19.14 160.432 18.9867 160.912 18.68C161.405 18.36 161.785 17.9 162.052 17.3C162.319 16.7 162.452 15.98 162.452 15.14C162.452 13.8733 162.159 12.8933 161.572 12.2C160.985 11.5067 160.199 11.16 159.212 11.16C158.559 11.16 157.985 11.32 157.492 11.64C157.012 11.9467 156.639 12.4 156.372 13C156.105 13.5867 155.972 14.3 155.972 15.14C155.972 16.42 156.265 17.4067 156.852 18.1C157.439 18.7933 158.225 19.14 159.212 19.14Z" fill="#00D6CB"/>
<path d="M12 2C5.37266 2 0 7.37266 0 14C0 20.6273 5.37266 26 12 26C18.6273 26 24 20.6273 24 14C23.9926 7.37578 18.6242 2.00742 12 2ZM12 25.2C5.81445 25.2 0.8 20.1855 0.8 14C0.8 7.81445 5.81445 2.8 12 2.8C18.1855 2.8 23.2 7.81445 23.2 14C23.193 20.1826 18.1826 25.193 12 25.2Z" fill="#00D6CB"/>
<path d="M17.6 9.2002H6.4C6.1791 9.2002 6 9.3793 6 9.6002V18.4002C6 18.6211 6.1791 18.8002 6.4 18.8002H17.6C17.8209 18.8002 18 18.6211 18 18.4002V9.6002C18 9.3793 17.8209 9.2002 17.6 9.2002ZM16.5199 10.0002L12 13.8734L7.48008 10.0002H16.5199ZM6.8 18.0002V10.4697L11.7396 14.7037C11.8893 14.8318 12.11 14.8318 12.2596 14.7037L17.2 10.4697V18.0002H6.8Z" fill="#00D6CB"/>
</svg>
