<svg width="340" height="19" viewBox="0 0 340 19" fill="none" xmlns="http://www.w3.org/2000/svg">
<path d="M8.16 15.16C7.14667 15.16 6.2 14.98 5.32 14.62C4.44 14.2467 3.67333 13.7333 3.02 13.08C2.36667 12.4267 1.85333 11.66 1.48 10.78C1.12 9.9 0.94 8.95333 0.94 7.94C0.94 6.91333 1.12 5.96667 1.48 5.1C1.85333 4.22 2.36667 3.46 3.02 2.82C3.67333 2.16667 4.43333 1.66 5.3 1.3C6.18 0.926665 7.13333 0.739999 8.16 0.739999C9.18667 0.739999 10.1333 0.926665 11 1.3C11.88 1.66 12.64 2.16667 13.28 2.82C13.9333 3.46 14.44 4.22 14.8 5.1C15.1733 5.96667 15.36 6.91333 15.36 7.94C15.36 8.95333 15.1733 9.9 14.8 10.78C14.44 11.66 13.9333 12.4267 13.28 13.08C12.64 13.7333 11.88 14.2467 11 14.62C10.1333 14.98 9.18667 15.16 8.16 15.16ZM8.16 14.44C9.06667 14.44 9.91333 14.28 10.7 13.96C11.4867 13.6267 12.1733 13.1667 12.76 12.58C13.3467 11.98 13.8 11.2867 14.12 10.5C14.4533 9.71333 14.62 8.86 14.62 7.94C14.62 7.02 14.4533 6.16667 14.12 5.38C13.8 4.59333 13.3467 3.90667 12.76 3.32C12.1733 2.73333 11.4867 2.28 10.7 1.96C9.91333 1.62667 9.06667 1.46 8.16 1.46C7.24 1.46 6.38667 1.62667 5.6 1.96C4.81333 2.28 4.12667 2.73333 3.54 3.32C2.95333 3.90667 2.49333 4.59333 2.16 5.38C1.84 6.16667 1.68 7.02 1.68 7.94C1.68 8.86 1.84 9.71333 2.16 10.5C2.49333 11.2867 2.95333 11.98 3.54 12.58C4.12667 13.1667 4.81333 13.6267 5.6 13.96C6.38667 14.28 7.24 14.44 8.16 14.44ZM8.34 12.26C7.08667 12.26 6.10667 11.86 5.4 11.06C4.69333 10.2467 4.34 9.18667 4.34 7.88C4.34 6.57333 4.69333 5.54 5.4 4.78C6.10667 4.02 7.08667 3.64 8.34 3.64C8.84667 3.64 9.34 3.73333 9.82 3.92C10.3 4.10667 10.7067 4.35333 11.04 4.66C11.1067 4.72667 11.1467 4.8 11.16 4.88C11.1733 4.94667 11.1667 5.01333 11.14 5.08C11.1133 5.14667 11.0667 5.2 11 5.24C10.9333 5.28 10.86 5.3 10.78 5.3C10.7 5.28667 10.6067 5.24 10.5 5.16C10.14 4.88 9.77333 4.68667 9.4 4.58C9.02667 4.46 8.66667 4.4 8.32 4.4C7.33333 4.4 6.56 4.70667 6 5.32C5.44 5.93333 5.16 6.79333 5.16 7.9C5.16 8.99333 5.44 9.86667 6 10.52C6.56 11.1733 7.33333 11.5 8.32 11.5C8.66667 11.5 9.02667 11.44 9.4 11.32C9.78667 11.2 10.16 10.9933 10.52 10.7C10.64 10.5933 10.7467 10.5467 10.84 10.56C10.9467 10.5733 11.0267 10.62 11.08 10.7C11.1467 10.78 11.1733 10.8733 11.16 10.98C11.16 11.0733 11.12 11.16 11.04 11.24C10.68 11.56 10.26 11.8133 9.78 12C9.3 12.1733 8.82 12.26 8.34 12.26ZM23.7305 15C23.5571 15 23.4238 14.9533 23.3305 14.86C23.2371 14.7667 23.1905 14.66 23.1905 14.54C23.1905 14.4733 23.2038 14.4 23.2305 14.32C23.2705 14.24 23.3171 14.1733 23.3705 14.12L28.2505 8.84C28.9971 8.02667 29.5371 7.27333 29.8705 6.58C30.2038 5.87333 30.3705 5.15333 30.3705 4.42C30.3705 3.48667 30.0971 2.78 29.5505 2.3C29.0038 1.80667 28.1971 1.56 27.1305 1.56C26.4105 1.56 25.7505 1.68667 25.1505 1.94C24.5505 2.18 23.9838 2.53333 23.4505 3C23.3438 3.09333 23.2438 3.14667 23.1505 3.16C23.0705 3.16 22.9971 3.13333 22.9305 3.08C22.8771 3.02667 22.8371 2.96 22.8105 2.88C22.7838 2.8 22.7771 2.71333 22.7905 2.62C22.8171 2.52667 22.8705 2.44 22.9505 2.36C23.4438 1.89333 24.0571 1.50667 24.7905 1.2C25.5371 0.893332 26.3171 0.739999 27.1305 0.739999C28.0105 0.739999 28.7571 0.886666 29.3705 1.18C29.9838 1.46 30.4505 1.87333 30.7705 2.42C31.0905 2.96667 31.2505 3.62667 31.2505 4.4C31.2505 4.96 31.1571 5.52 30.9705 6.08C30.7838 6.62667 30.5038 7.18667 30.1305 7.76C29.7705 8.32 29.3038 8.9 28.7305 9.5L24.0105 14.52V14.22H31.5305C31.6771 14.22 31.7838 14.2533 31.8505 14.32C31.9305 14.3867 31.9705 14.48 31.9705 14.6C31.9705 14.7333 31.9305 14.8333 31.8505 14.9C31.7838 14.9667 31.6771 15 31.5305 15H23.7305ZM39.2227 15.16C37.6627 15.16 36.476 14.5467 35.6627 13.32C34.8627 12.0933 34.4627 10.3067 34.4627 7.96C34.4627 6.37333 34.6427 5.04667 35.0027 3.98C35.3627 2.91333 35.896 2.10667 36.6027 1.56C37.3093 1.01333 38.1827 0.739999 39.2227 0.739999C40.796 0.739999 41.9827 1.34667 42.7827 2.56C43.5827 3.77333 43.9827 5.56667 43.9827 7.94C43.9827 9.51333 43.8027 10.84 43.4427 11.92C43.0827 12.9867 42.5493 13.7933 41.8427 14.34C41.136 14.8867 40.2627 15.16 39.2227 15.16ZM39.2227 14.34C40.5293 14.34 41.496 13.82 42.1227 12.78C42.7627 11.7267 43.0827 10.1133 43.0827 7.94C43.0827 5.75333 42.7693 4.14667 42.1427 3.12C41.516 2.08 40.5427 1.56 39.2227 1.56C37.916 1.56 36.9427 2.08 36.3027 3.12C35.676 4.16 35.3627 5.76667 35.3627 7.94C35.3627 10.1133 35.676 11.7267 36.3027 12.78C36.9427 13.82 37.916 14.34 39.2227 14.34ZM47.7148 15C47.5415 15 47.4082 14.9533 47.3148 14.86C47.2215 14.7667 47.1748 14.66 47.1748 14.54C47.1748 14.4733 47.1882 14.4 47.2148 14.32C47.2548 14.24 47.3015 14.1733 47.3548 14.12L52.2348 8.84C52.9815 8.02667 53.5215 7.27333 53.8548 6.58C54.1882 5.87333 54.3548 5.15333 54.3548 4.42C54.3548 3.48667 54.0815 2.78 53.5348 2.3C52.9882 1.80667 52.1815 1.56 51.1148 1.56C50.3948 1.56 49.7348 1.68667 49.1348 1.94C48.5348 2.18 47.9682 2.53333 47.4348 3C47.3282 3.09333 47.2282 3.14667 47.1348 3.16C47.0548 3.16 46.9815 3.13333 46.9148 3.08C46.8615 3.02667 46.8215 2.96 46.7948 2.88C46.7682 2.8 46.7615 2.71333 46.7748 2.62C46.8015 2.52667 46.8548 2.44 46.9348 2.36C47.4282 1.89333 48.0415 1.50667 48.7748 1.2C49.5215 0.893332 50.3015 0.739999 51.1148 0.739999C51.9948 0.739999 52.7415 0.886666 53.3548 1.18C53.9682 1.46 54.4348 1.87333 54.7548 2.42C55.0748 2.96667 55.2348 3.62667 55.2348 4.4C55.2348 4.96 55.1415 5.52 54.9548 6.08C54.7682 6.62667 54.4882 7.18667 54.1148 7.76C53.7548 8.32 53.2882 8.9 52.7148 9.5L47.9948 14.52V14.22H55.5148C55.6615 14.22 55.7682 14.2533 55.8348 14.32C55.9148 14.3867 55.9548 14.48 55.9548 14.6C55.9548 14.7333 55.9148 14.8333 55.8348 14.9C55.7682 14.9667 55.6615 15 55.5148 15H47.7148ZM59.707 15C59.5337 15 59.4004 14.9533 59.307 14.86C59.2137 14.7667 59.167 14.66 59.167 14.54C59.167 14.4733 59.1804 14.4 59.207 14.32C59.247 14.24 59.2937 14.1733 59.347 14.12L64.227 8.84C64.9737 8.02667 65.5137 7.27333 65.847 6.58C66.1804 5.87333 66.347 5.15333 66.347 4.42C66.347 3.48667 66.0737 2.78 65.527 2.3C64.9804 1.80667 64.1737 1.56 63.107 1.56C62.387 1.56 61.727 1.68667 61.127 1.94C60.527 2.18 59.9604 2.53333 59.427 3C59.3204 3.09333 59.2204 3.14667 59.127 3.16C59.047 3.16 58.9737 3.13333 58.907 3.08C58.8537 3.02667 58.8137 2.96 58.787 2.88C58.7604 2.8 58.7537 2.71333 58.767 2.62C58.7937 2.52667 58.847 2.44 58.927 2.36C59.4204 1.89333 60.0337 1.50667 60.767 1.2C61.5137 0.893332 62.2937 0.739999 63.107 0.739999C63.987 0.739999 64.7337 0.886666 65.347 1.18C65.9604 1.46 66.427 1.87333 66.747 2.42C67.067 2.96667 67.227 3.62667 67.227 4.4C67.227 4.96 67.1337 5.52 66.947 6.08C66.7604 6.62667 66.4804 7.18667 66.107 7.76C65.747 8.32 65.2804 8.9 64.707 9.5L59.987 14.52V14.22H67.507C67.6537 14.22 67.7604 14.2533 67.827 14.32C67.907 14.3867 67.947 14.48 67.947 14.6C67.947 14.7333 67.907 14.8333 67.827 14.9C67.7604 14.9667 67.6537 15 67.507 15H59.707ZM76.4611 15.12C76.3278 15.12 76.2211 15.08 76.1411 15C76.0744 14.92 76.0411 14.8133 76.0411 14.68V1.22C76.0411 1.07333 76.0744 0.966666 76.1411 0.899999C76.2211 0.819999 76.3278 0.779999 76.4611 0.779999C76.5944 0.779999 76.6944 0.819999 76.7611 0.899999C76.8411 0.966666 76.8811 1.07333 76.8811 1.22V14.68C76.8811 14.8133 76.8478 14.92 76.7811 15C76.7144 15.08 76.6078 15.12 76.4611 15.12ZM80.9286 15.12C80.7953 15.12 80.6886 15.08 80.6086 15C80.5419 14.92 80.5086 14.8133 80.5086 14.68V5.64C80.5086 5.49333 80.5419 5.38667 80.6086 5.32C80.6886 5.24 80.7953 5.2 80.9286 5.2C81.0619 5.2 81.1619 5.24 81.2286 5.32C81.2953 5.38667 81.3286 5.49333 81.3286 5.64V7.68H81.1086C81.3753 6.84 81.8353 6.21333 82.4886 5.8C83.1419 5.37333 83.8953 5.16 84.7486 5.16C85.5219 5.16 86.1619 5.29333 86.6686 5.56C87.1886 5.82667 87.5753 6.23333 87.8286 6.78C88.0819 7.32667 88.2086 8.01333 88.2086 8.84V14.68C88.2086 14.8133 88.1686 14.92 88.0886 15C88.0219 15.08 87.9219 15.12 87.7886 15.12C87.6553 15.12 87.5486 15.08 87.4686 15C87.4019 14.92 87.3686 14.8133 87.3686 14.68V8.92C87.3686 7.89333 87.1619 7.14 86.7486 6.66C86.3353 6.18 85.6686 5.94 84.7486 5.94C83.7219 5.94 82.8953 6.26 82.2686 6.9C81.6553 7.52667 81.3486 8.37333 81.3486 9.44V14.68C81.3486 14.9733 81.2086 15.12 80.9286 15.12ZM94.9633 15.16C94.2966 15.16 93.7366 15.0333 93.2833 14.78C92.8299 14.5133 92.4899 14.14 92.2633 13.66C92.0366 13.1667 91.9233 12.5733 91.9233 11.88V6.04H90.3033C90.1699 6.04 90.0633 6.00667 89.9833 5.94C89.9033 5.87333 89.8633 5.78667 89.8633 5.68C89.8633 5.57333 89.9033 5.48667 89.9833 5.42C90.0633 5.35333 90.1699 5.32 90.3033 5.32H91.9233V2.62C91.9233 2.47333 91.9566 2.36667 92.0233 2.3C92.1033 2.22 92.2099 2.18 92.3433 2.18C92.4766 2.18 92.5766 2.22 92.6433 2.3C92.7233 2.36667 92.7633 2.47333 92.7633 2.62V5.32H95.6233C95.7699 5.32 95.8766 5.35333 95.9433 5.42C96.0233 5.48667 96.0633 5.57333 96.0633 5.68C96.0633 5.78667 96.0233 5.87333 95.9433 5.94C95.8766 6.00667 95.7699 6.04 95.6233 6.04H92.7633V11.7C92.7633 12.5667 92.9366 13.2333 93.2833 13.7C93.6299 14.1533 94.2099 14.38 95.0233 14.38C95.3033 14.38 95.5299 14.3533 95.7033 14.3C95.8899 14.2333 96.0433 14.2 96.1633 14.2C96.2433 14.2 96.3099 14.2333 96.3633 14.3C96.4299 14.3667 96.4633 14.46 96.4633 14.58C96.4633 14.6467 96.4433 14.72 96.4033 14.8C96.3766 14.8667 96.3166 14.9133 96.2233 14.94C96.0899 14.9933 95.8966 15.04 95.6433 15.08C95.4033 15.1333 95.1766 15.16 94.9633 15.16ZM101.892 15.16C100.932 15.16 100.105 14.96 99.4119 14.56C98.7185 14.16 98.1785 13.5933 97.7919 12.86C97.4185 12.1133 97.2319 11.2267 97.2319 10.2C97.2319 9.18667 97.4185 8.30667 97.7919 7.56C98.1785 6.8 98.7052 6.21333 99.3719 5.8C100.052 5.37333 100.832 5.16 101.712 5.16C102.339 5.16 102.892 5.26667 103.372 5.48C103.865 5.69333 104.279 6 104.612 6.4C104.959 6.8 105.219 7.28667 105.392 7.86C105.579 8.43333 105.672 9.08 105.672 9.8C105.672 9.97333 105.632 10.1067 105.552 10.2C105.485 10.28 105.379 10.32 105.232 10.32H97.7719V9.58H105.232L104.892 9.82C104.892 9.00667 104.772 8.31333 104.532 7.74C104.292 7.15333 103.932 6.70667 103.452 6.4C102.985 6.08 102.399 5.92 101.692 5.92C100.919 5.92 100.259 6.10667 99.7119 6.48C99.1785 6.84 98.7719 7.33333 98.4919 7.96C98.2252 8.58667 98.0919 9.3 98.0919 10.1V10.2C98.0919 11.5333 98.4185 12.5667 99.0719 13.3C99.7385 14.02 100.665 14.38 101.852 14.38C102.385 14.38 102.885 14.3133 103.352 14.18C103.819 14.0333 104.279 13.78 104.732 13.42C104.825 13.34 104.919 13.3 105.012 13.3C105.119 13.2867 105.205 13.3067 105.272 13.36C105.352 13.4 105.405 13.46 105.432 13.54C105.472 13.6067 105.479 13.6867 105.452 13.78C105.425 13.8733 105.359 13.96 105.252 14.04C104.839 14.3867 104.332 14.66 103.732 14.86C103.132 15.06 102.519 15.16 101.892 15.16ZM108.761 15.12C108.627 15.12 108.521 15.08 108.441 15C108.374 14.92 108.341 14.8133 108.341 14.68V5.64C108.341 5.49333 108.374 5.38667 108.441 5.32C108.521 5.24 108.627 5.2 108.761 5.2C108.894 5.2 108.994 5.24 109.061 5.32C109.127 5.38667 109.161 5.49333 109.161 5.64V7.58H108.961C109.214 6.79333 109.661 6.18667 110.301 5.76C110.954 5.33333 111.707 5.12 112.561 5.12C112.681 5.12 112.781 5.14667 112.861 5.2C112.954 5.24 113.001 5.32667 113.001 5.46C113.001 5.59333 112.967 5.7 112.901 5.78C112.834 5.84667 112.721 5.88667 112.561 5.9L112.321 5.92C111.334 6.01333 110.561 6.34667 110.001 6.92C109.454 7.49333 109.181 8.25333 109.181 9.2V14.68C109.181 14.8133 109.147 14.92 109.081 15C109.014 15.08 108.907 15.12 108.761 15.12ZM115.304 15.12C115.17 15.12 115.064 15.08 114.984 15C114.917 14.92 114.884 14.8133 114.884 14.68V5.64C114.884 5.49333 114.917 5.38667 114.984 5.32C115.064 5.24 115.17 5.2 115.304 5.2C115.437 5.2 115.537 5.24 115.604 5.32C115.67 5.38667 115.704 5.49333 115.704 5.64V7.68H115.484C115.75 6.84 116.21 6.21333 116.864 5.8C117.517 5.37333 118.27 5.16 119.124 5.16C119.897 5.16 120.537 5.29333 121.044 5.56C121.564 5.82667 121.95 6.23333 122.204 6.78C122.457 7.32667 122.584 8.01333 122.584 8.84V14.68C122.584 14.8133 122.544 14.92 122.464 15C122.397 15.08 122.297 15.12 122.164 15.12C122.03 15.12 121.924 15.08 121.844 15C121.777 14.92 121.744 14.8133 121.744 14.68V8.92C121.744 7.89333 121.537 7.14 121.124 6.66C120.71 6.18 120.044 5.94 119.124 5.94C118.097 5.94 117.27 6.26 116.644 6.9C116.03 7.52667 115.724 8.37333 115.724 9.44V14.68C115.724 14.9733 115.584 15.12 115.304 15.12ZM128.858 15.16C128.232 15.16 127.665 15.0333 127.158 14.78C126.652 14.5267 126.252 14.1867 125.958 13.76C125.665 13.32 125.518 12.8333 125.518 12.3C125.518 11.58 125.692 11.02 126.038 10.62C126.398 10.2067 127.005 9.92 127.858 9.76C128.725 9.58667 129.912 9.5 131.418 9.5H132.238V10.24H131.458C130.138 10.24 129.112 10.3 128.378 10.42C127.658 10.5267 127.152 10.7267 126.858 11.02C126.578 11.3 126.438 11.7 126.438 12.22C126.438 12.86 126.658 13.3867 127.098 13.8C127.552 14.2 128.158 14.4 128.918 14.4C129.532 14.4 130.065 14.2533 130.518 13.96C130.985 13.6533 131.352 13.2467 131.618 12.74C131.885 12.22 132.018 11.6333 132.018 10.98V8.7C132.018 7.74 131.832 7.04 131.458 6.6C131.085 6.16 130.485 5.94 129.658 5.94C129.125 5.94 128.612 6.01333 128.118 6.16C127.638 6.30667 127.132 6.53333 126.598 6.84C126.478 6.90667 126.372 6.93333 126.278 6.92C126.198 6.90667 126.132 6.87333 126.078 6.82C126.025 6.75333 125.985 6.68 125.958 6.6C125.945 6.50667 125.952 6.42 125.978 6.34C126.018 6.26 126.085 6.19333 126.178 6.14C126.725 5.80667 127.292 5.56 127.878 5.4C128.465 5.24 129.045 5.16 129.618 5.16C130.352 5.16 130.958 5.28667 131.438 5.54C131.918 5.79333 132.272 6.18 132.498 6.7C132.738 7.22 132.858 7.88667 132.858 8.7V14.68C132.858 14.8133 132.825 14.92 132.758 15C132.692 15.08 132.592 15.12 132.458 15.12C132.325 15.12 132.218 15.08 132.138 15C132.072 14.92 132.038 14.8133 132.038 14.68V12.58H132.258C132.125 13.1133 131.898 13.5733 131.578 13.96C131.258 14.3467 130.865 14.6467 130.398 14.86C129.945 15.06 129.432 15.16 128.858 15.16ZM139.612 15.16C138.945 15.16 138.385 15.0333 137.932 14.78C137.478 14.5133 137.138 14.14 136.912 13.66C136.685 13.1667 136.572 12.5733 136.572 11.88V6.04H134.952C134.818 6.04 134.712 6.00667 134.632 5.94C134.552 5.87333 134.512 5.78667 134.512 5.68C134.512 5.57333 134.552 5.48667 134.632 5.42C134.712 5.35333 134.818 5.32 134.952 5.32H136.572V2.62C136.572 2.47333 136.605 2.36667 136.672 2.3C136.752 2.22 136.858 2.18 136.992 2.18C137.125 2.18 137.225 2.22 137.292 2.3C137.372 2.36667 137.412 2.47333 137.412 2.62V5.32H140.272C140.418 5.32 140.525 5.35333 140.592 5.42C140.672 5.48667 140.712 5.57333 140.712 5.68C140.712 5.78667 140.672 5.87333 140.592 5.94C140.525 6.00667 140.418 6.04 140.272 6.04H137.412V11.7C137.412 12.5667 137.585 13.2333 137.932 13.7C138.278 14.1533 138.858 14.38 139.672 14.38C139.952 14.38 140.178 14.3533 140.352 14.3C140.538 14.2333 140.692 14.2 140.812 14.2C140.892 14.2 140.958 14.2333 141.012 14.3C141.078 14.3667 141.112 14.46 141.112 14.58C141.112 14.6467 141.092 14.72 141.052 14.8C141.025 14.8667 140.965 14.9133 140.872 14.94C140.738 14.9933 140.545 15.04 140.292 15.08C140.052 15.1333 139.825 15.16 139.612 15.16ZM143.038 15.06C142.905 15.06 142.798 15.02 142.718 14.94C142.651 14.86 142.618 14.7533 142.618 14.62V5.7C142.618 5.55333 142.651 5.44667 142.718 5.38C142.798 5.3 142.905 5.26 143.038 5.26C143.171 5.26 143.271 5.3 143.338 5.38C143.418 5.44667 143.458 5.55333 143.458 5.7V14.62C143.458 14.7533 143.425 14.86 143.358 14.94C143.291 15.02 143.185 15.06 143.038 15.06ZM143.038 2.68C142.825 2.68 142.651 2.62 142.518 2.5C142.398 2.36667 142.338 2.19333 142.338 1.98C142.338 1.75333 142.398 1.58667 142.518 1.48C142.651 1.36 142.825 1.3 143.038 1.3C143.265 1.3 143.438 1.36 143.558 1.48C143.678 1.58667 143.738 1.75333 143.738 1.98C143.738 2.19333 143.678 2.36667 143.558 2.5C143.438 2.62 143.265 2.68 143.038 2.68ZM150.536 15.16C149.656 15.16 148.89 14.9533 148.236 14.54C147.596 14.1267 147.096 13.5467 146.736 12.8C146.39 12.0533 146.216 11.1733 146.216 10.16C146.216 9.4 146.316 8.71333 146.516 8.1C146.716 7.48667 147.003 6.96 147.376 6.52C147.763 6.08 148.223 5.74667 148.756 5.52C149.29 5.28 149.883 5.16 150.536 5.16C151.416 5.16 152.176 5.36667 152.816 5.78C153.47 6.19333 153.97 6.77333 154.316 7.52C154.676 8.26667 154.856 9.14667 154.856 10.16C154.856 10.92 154.756 11.6067 154.556 12.22C154.356 12.8333 154.063 13.36 153.676 13.8C153.303 14.24 152.85 14.58 152.316 14.82C151.796 15.0467 151.203 15.16 150.536 15.16ZM150.536 14.38C151.243 14.38 151.856 14.2133 152.376 13.88C152.896 13.5467 153.296 13.0667 153.576 12.44C153.856 11.8 153.996 11.04 153.996 10.16C153.996 8.82667 153.683 7.79333 153.056 7.06C152.443 6.31333 151.603 5.94 150.536 5.94C149.83 5.94 149.216 6.10667 148.696 6.44C148.176 6.77333 147.776 7.25333 147.496 7.88C147.216 8.50667 147.076 9.26667 147.076 10.16C147.076 11.4933 147.39 12.5333 148.016 13.28C148.643 14.0133 149.483 14.38 150.536 14.38ZM158.038 15.12C157.905 15.12 157.798 15.08 157.718 15C157.651 14.92 157.618 14.8133 157.618 14.68V5.64C157.618 5.49333 157.651 5.38667 157.718 5.32C157.798 5.24 157.905 5.2 158.038 5.2C158.171 5.2 158.271 5.24 158.338 5.32C158.405 5.38667 158.438 5.49333 158.438 5.64V7.68H158.218C158.485 6.84 158.945 6.21333 159.598 5.8C160.251 5.37333 161.005 5.16 161.858 5.16C162.631 5.16 163.271 5.29333 163.778 5.56C164.298 5.82667 164.685 6.23333 164.938 6.78C165.191 7.32667 165.318 8.01333 165.318 8.84V14.68C165.318 14.8133 165.278 14.92 165.198 15C165.131 15.08 165.031 15.12 164.898 15.12C164.765 15.12 164.658 15.08 164.578 15C164.511 14.92 164.478 14.8133 164.478 14.68V8.92C164.478 7.89333 164.271 7.14 163.858 6.66C163.445 6.18 162.778 5.94 161.858 5.94C160.831 5.94 160.005 6.26 159.378 6.9C158.765 7.52667 158.458 8.37333 158.458 9.44V14.68C158.458 14.9733 158.318 15.12 158.038 15.12ZM171.593 15.16C170.966 15.16 170.399 15.0333 169.893 14.78C169.386 14.5267 168.986 14.1867 168.693 13.76C168.399 13.32 168.253 12.8333 168.253 12.3C168.253 11.58 168.426 11.02 168.773 10.62C169.133 10.2067 169.739 9.92 170.593 9.76C171.459 9.58667 172.646 9.5 174.153 9.5H174.973V10.24H174.193C172.873 10.24 171.846 10.3 171.113 10.42C170.393 10.5267 169.886 10.7267 169.593 11.02C169.313 11.3 169.173 11.7 169.173 12.22C169.173 12.86 169.393 13.3867 169.833 13.8C170.286 14.2 170.893 14.4 171.653 14.4C172.266 14.4 172.799 14.2533 173.253 13.96C173.719 13.6533 174.086 13.2467 174.353 12.74C174.619 12.22 174.753 11.6333 174.753 10.98V8.7C174.753 7.74 174.566 7.04 174.193 6.6C173.819 6.16 173.219 5.94 172.393 5.94C171.859 5.94 171.346 6.01333 170.853 6.16C170.373 6.30667 169.866 6.53333 169.333 6.84C169.213 6.90667 169.106 6.93333 169.013 6.92C168.933 6.90667 168.866 6.87333 168.813 6.82C168.759 6.75333 168.719 6.68 168.693 6.6C168.679 6.50667 168.686 6.42 168.713 6.34C168.753 6.26 168.819 6.19333 168.913 6.14C169.459 5.80667 170.026 5.56 170.613 5.4C171.199 5.24 171.779 5.16 172.353 5.16C173.086 5.16 173.693 5.28667 174.173 5.54C174.653 5.79333 175.006 6.18 175.233 6.7C175.473 7.22 175.593 7.88667 175.593 8.7V14.68C175.593 14.8133 175.559 14.92 175.493 15C175.426 15.08 175.326 15.12 175.193 15.12C175.059 15.12 174.953 15.08 174.873 15C174.806 14.92 174.773 14.8133 174.773 14.68V12.58H174.993C174.859 13.1133 174.633 13.5733 174.313 13.96C173.993 14.3467 173.599 14.6467 173.133 14.86C172.679 15.06 172.166 15.16 171.593 15.16ZM181.586 15.16C180.746 15.16 180.093 14.8933 179.626 14.36C179.173 13.8133 178.946 13.0533 178.946 12.08V1.22C178.946 1.07333 178.979 0.966666 179.046 0.899999C179.126 0.819999 179.233 0.779999 179.366 0.779999C179.499 0.779999 179.599 0.819999 179.666 0.899999C179.746 0.966666 179.786 1.07333 179.786 1.22V11.94C179.786 12.7533 179.946 13.3667 180.266 13.78C180.586 14.18 181.053 14.38 181.666 14.38C181.799 14.38 181.913 14.3733 182.006 14.36C182.099 14.3467 182.193 14.34 182.286 14.34C182.393 14.34 182.473 14.36 182.526 14.4C182.593 14.44 182.626 14.52 182.626 14.64C182.626 14.7867 182.586 14.8933 182.506 14.96C182.426 15.0267 182.293 15.08 182.106 15.12C182.013 15.1333 181.919 15.14 181.826 15.14C181.746 15.1533 181.666 15.16 181.586 15.16ZM188.916 15.12C188.782 15.12 188.682 15.0933 188.616 15.04C188.549 14.9867 188.516 14.9133 188.516 14.82C188.516 14.7133 188.542 14.6 188.596 14.48L194.316 1.2C194.382 1.05333 194.462 0.946666 194.556 0.879999C194.649 0.813333 194.742 0.779999 194.836 0.779999C194.942 0.779999 195.042 0.813333 195.136 0.879999C195.229 0.946666 195.302 1.05333 195.356 1.2L201.076 14.48C201.129 14.6 201.156 14.7133 201.156 14.82C201.156 14.9133 201.129 14.9867 201.076 15.04C201.022 15.0933 200.929 15.12 200.796 15.12C200.662 15.12 200.549 15.08 200.456 15C200.376 14.92 200.309 14.82 200.256 14.7L198.636 10.92L199.176 11.1H190.456L191.016 10.92L189.396 14.7C189.342 14.8467 189.269 14.9533 189.176 15.02C189.082 15.0867 188.996 15.12 188.916 15.12ZM194.816 2.04L191.236 10.44L190.796 10.32H198.836L198.436 10.44L194.856 2.04H194.816ZM207.255 15.16C206.388 15.16 205.628 14.96 204.975 14.56C204.335 14.1467 203.835 13.5667 203.475 12.82C203.128 12.06 202.955 11.1733 202.955 10.16C202.955 9.13333 203.128 8.24667 203.475 7.5C203.821 6.75333 204.315 6.18 204.955 5.78C205.608 5.36667 206.375 5.16 207.255 5.16C208.188 5.16 208.981 5.4 209.635 5.88C210.288 6.36 210.721 7.01333 210.935 7.84H210.715V1.22C210.715 1.07333 210.748 0.966666 210.815 0.899999C210.895 0.819999 211.001 0.779999 211.135 0.779999C211.268 0.779999 211.368 0.819999 211.435 0.899999C211.515 0.966666 211.555 1.07333 211.555 1.22V14.68C211.555 14.8133 211.515 14.92 211.435 15C211.368 15.08 211.268 15.12 211.135 15.12C211.001 15.12 210.895 15.08 210.815 15C210.748 14.92 210.715 14.8133 210.715 14.68V12.48H210.935C210.721 13.2933 210.288 13.9467 209.635 14.44C208.981 14.92 208.188 15.16 207.255 15.16ZM207.275 14.38C207.981 14.38 208.595 14.2133 209.115 13.88C209.635 13.5467 210.035 13.0667 210.315 12.44C210.595 11.8 210.735 11.04 210.735 10.16C210.735 8.82667 210.421 7.79333 209.795 7.06C209.181 6.31333 208.341 5.94 207.275 5.94C206.568 5.94 205.955 6.10667 205.435 6.44C204.915 6.77333 204.515 7.25333 204.235 7.88C203.955 8.50667 203.815 9.26667 203.815 10.16C203.815 11.4933 204.128 12.5333 204.755 13.28C205.381 14.0133 206.221 14.38 207.275 14.38ZM218.302 15.12C218.155 15.12 218.028 15.08 217.922 15C217.815 14.9067 217.722 14.7733 217.642 14.6L213.922 5.9C213.868 5.76667 213.848 5.65333 213.862 5.56C213.875 5.45333 213.915 5.36667 213.982 5.3C214.062 5.23333 214.168 5.2 214.302 5.2C214.422 5.2 214.508 5.23333 214.562 5.3C214.628 5.35333 214.688 5.43333 214.742 5.54L218.542 14.7H218.062L221.882 5.54C221.935 5.43333 221.988 5.35333 222.042 5.3C222.108 5.23333 222.208 5.2 222.342 5.2C222.475 5.2 222.568 5.23333 222.622 5.3C222.688 5.36667 222.722 5.45333 222.722 5.56C222.735 5.65333 222.715 5.76 222.662 5.88L218.962 14.6C218.895 14.7733 218.802 14.9067 218.682 15C218.575 15.08 218.448 15.12 218.302 15.12ZM225.46 15.06C225.327 15.06 225.22 15.02 225.14 14.94C225.073 14.86 225.04 14.7533 225.04 14.62V5.7C225.04 5.55333 225.073 5.44667 225.14 5.38C225.22 5.3 225.327 5.26 225.46 5.26C225.593 5.26 225.693 5.3 225.76 5.38C225.84 5.44667 225.88 5.55333 225.88 5.7V14.62C225.88 14.7533 225.847 14.86 225.78 14.94C225.713 15.02 225.607 15.06 225.46 15.06ZM225.46 2.68C225.247 2.68 225.073 2.62 224.94 2.5C224.82 2.36667 224.76 2.19333 224.76 1.98C224.76 1.75333 224.82 1.58667 224.94 1.48C225.073 1.36 225.247 1.3 225.46 1.3C225.687 1.3 225.86 1.36 225.98 1.48C226.1 1.58667 226.16 1.75333 226.16 1.98C226.16 2.19333 226.1 2.36667 225.98 2.5C225.86 2.62 225.687 2.68 225.46 2.68ZM232.298 15.16C231.685 15.16 231.091 15.0733 230.518 14.9C229.945 14.7267 229.385 14.4333 228.838 14.02C228.771 13.9667 228.725 13.9 228.698 13.82C228.685 13.74 228.685 13.66 228.698 13.58C228.725 13.5 228.765 13.4333 228.818 13.38C228.885 13.3133 228.958 13.28 229.038 13.28C229.131 13.28 229.225 13.3133 229.318 13.38C229.825 13.7533 230.331 14.0133 230.838 14.16C231.345 14.3067 231.851 14.38 232.358 14.38C233.225 14.38 233.885 14.2133 234.338 13.88C234.805 13.5467 235.038 13.0933 235.038 12.52C235.038 12.0667 234.885 11.7133 234.578 11.46C234.285 11.1933 233.805 10.98 233.138 10.82L231.478 10.42C230.638 10.22 230.018 9.91333 229.618 9.5C229.231 9.08667 229.038 8.55333 229.038 7.9C229.038 7.35333 229.178 6.87333 229.458 6.46C229.751 6.04667 230.158 5.72667 230.678 5.5C231.211 5.27333 231.825 5.16 232.518 5.16C233.105 5.16 233.665 5.25333 234.198 5.44C234.745 5.62667 235.205 5.90667 235.578 6.28C235.658 6.36 235.705 6.44667 235.718 6.54C235.745 6.62 235.745 6.7 235.718 6.78C235.691 6.86 235.645 6.92 235.578 6.96C235.511 7 235.431 7.02 235.338 7.02C235.258 7.00667 235.171 6.96 235.078 6.88C234.705 6.56 234.298 6.32667 233.858 6.18C233.418 6.02 232.965 5.94 232.498 5.94C231.685 5.94 231.051 6.12 230.598 6.48C230.145 6.82667 229.918 7.29333 229.918 7.88C229.918 8.33333 230.058 8.7 230.338 8.98C230.618 9.26 231.065 9.47333 231.678 9.62L233.338 10.02C234.205 10.2333 234.851 10.5333 235.278 10.92C235.705 11.3067 235.918 11.8267 235.918 12.48C235.918 13.2933 235.591 13.9467 234.938 14.44C234.285 14.92 233.405 15.16 232.298 15.16ZM242.45 15.16C241.57 15.16 240.804 14.9533 240.15 14.54C239.51 14.1267 239.01 13.5467 238.65 12.8C238.304 12.0533 238.13 11.1733 238.13 10.16C238.13 9.4 238.23 8.71333 238.43 8.1C238.63 7.48667 238.917 6.96 239.29 6.52C239.677 6.08 240.137 5.74667 240.67 5.52C241.204 5.28 241.797 5.16 242.45 5.16C243.33 5.16 244.09 5.36667 244.73 5.78C245.384 6.19333 245.884 6.77333 246.23 7.52C246.59 8.26667 246.77 9.14667 246.77 10.16C246.77 10.92 246.67 11.6067 246.47 12.22C246.27 12.8333 245.977 13.36 245.59 13.8C245.217 14.24 244.764 14.58 244.23 14.82C243.71 15.0467 243.117 15.16 242.45 15.16ZM242.45 14.38C243.157 14.38 243.77 14.2133 244.29 13.88C244.81 13.5467 245.21 13.0667 245.49 12.44C245.77 11.8 245.91 11.04 245.91 10.16C245.91 8.82667 245.597 7.79333 244.97 7.06C244.357 6.31333 243.517 5.94 242.45 5.94C241.744 5.94 241.13 6.10667 240.61 6.44C240.09 6.77333 239.69 7.25333 239.41 7.88C239.13 8.50667 238.99 9.26667 238.99 10.16C238.99 11.4933 239.304 12.5333 239.93 13.28C240.557 14.0133 241.397 14.38 242.45 14.38ZM249.952 15.12C249.819 15.12 249.712 15.08 249.632 15C249.565 14.92 249.532 14.8133 249.532 14.68V5.64C249.532 5.49333 249.565 5.38667 249.632 5.32C249.712 5.24 249.819 5.2 249.952 5.2C250.085 5.2 250.185 5.24 250.252 5.32C250.319 5.38667 250.352 5.49333 250.352 5.64V7.58H250.152C250.405 6.79333 250.852 6.18667 251.492 5.76C252.145 5.33333 252.899 5.12 253.752 5.12C253.872 5.12 253.972 5.14667 254.052 5.2C254.145 5.24 254.192 5.32667 254.192 5.46C254.192 5.59333 254.159 5.7 254.092 5.78C254.025 5.84667 253.912 5.88667 253.752 5.9L253.512 5.92C252.525 6.01333 251.752 6.34667 251.192 6.92C250.645 7.49333 250.372 8.25333 250.372 9.2V14.68C250.372 14.8133 250.339 14.92 250.272 15C250.205 15.08 250.099 15.12 249.952 15.12ZM258.58 18.72C258.46 18.72 258.367 18.6867 258.3 18.62C258.234 18.5533 258.2 18.4667 258.2 18.36C258.2 18.2533 258.22 18.1467 258.26 18.04L259.64 14.86V15.26L255.64 5.9C255.587 5.76667 255.567 5.65333 255.58 5.56C255.594 5.45333 255.634 5.36667 255.7 5.3C255.78 5.23333 255.887 5.2 256.02 5.2C256.14 5.2 256.227 5.23333 256.28 5.3C256.347 5.35333 256.407 5.43333 256.46 5.54L260.26 14.72H259.78L263.6 5.54C263.654 5.42 263.707 5.33333 263.76 5.28C263.827 5.22667 263.927 5.2 264.06 5.2C264.194 5.2 264.287 5.23333 264.34 5.3C264.407 5.36667 264.44 5.45333 264.44 5.56C264.454 5.65333 264.434 5.76 264.38 5.88L259.06 18.36C259.007 18.4933 258.947 18.5867 258.88 18.64C258.814 18.6933 258.714 18.72 258.58 18.72ZM272.4 15C272.24 15 272.114 14.96 272.02 14.88C271.94 14.7867 271.9 14.66 271.9 14.5V1.4C271.9 1.24 271.94 1.12 272.02 1.04C272.114 0.946666 272.24 0.899999 272.4 0.899999H280.08C280.214 0.899999 280.314 0.933332 280.38 0.999999C280.46 1.06667 280.5 1.16 280.5 1.28C280.5 1.41333 280.46 1.51333 280.38 1.58C280.314 1.64667 280.214 1.68 280.08 1.68H272.74V7.46H279.68C279.814 7.46 279.914 7.49333 279.98 7.56C280.06 7.62667 280.1 7.72 280.1 7.84C280.1 7.97333 280.06 8.07333 279.98 8.14C279.914 8.20667 279.814 8.24 279.68 8.24H272.74V14.22H280.08C280.214 14.22 280.314 14.2533 280.38 14.32C280.46 14.3867 280.5 14.48 280.5 14.6C280.5 14.7333 280.46 14.8333 280.38 14.9C280.314 14.9667 280.214 15 280.08 15H272.4ZM282.587 15.14C282.507 15.14 282.427 15.1133 282.347 15.06C282.28 15.0067 282.24 14.9333 282.227 14.84C282.227 14.7333 282.28 14.6133 282.387 14.48L286.147 9.74V10.26L282.627 5.86C282.52 5.72667 282.467 5.61333 282.467 5.52C282.48 5.41333 282.52 5.33333 282.587 5.28C282.667 5.22667 282.747 5.2 282.827 5.2C282.933 5.2 283.027 5.22667 283.107 5.28C283.187 5.32 283.26 5.38667 283.327 5.48L286.607 9.6H286.307L289.587 5.48C289.653 5.38667 289.727 5.32 289.807 5.28C289.887 5.22667 289.98 5.2 290.087 5.2C290.167 5.2 290.24 5.22667 290.307 5.28C290.387 5.33333 290.427 5.41333 290.427 5.52C290.44 5.61333 290.393 5.72667 290.287 5.86L286.807 10.2V9.82L290.527 14.48C290.633 14.6133 290.68 14.7333 290.667 14.84C290.667 14.9333 290.627 15.0067 290.547 15.06C290.48 15.1133 290.407 15.14 290.327 15.14C290.22 15.14 290.12 15.1133 290.027 15.06C289.947 15.02 289.867 14.9533 289.787 14.86L286.287 10.46H286.607L283.107 14.86C283.04 14.9533 282.96 15.02 282.867 15.06C282.787 15.1133 282.693 15.14 282.587 15.14ZM293.624 18.72C293.491 18.72 293.384 18.68 293.304 18.6C293.237 18.52 293.204 18.4133 293.204 18.28V5.64C293.204 5.49333 293.237 5.38667 293.304 5.32C293.384 5.24 293.491 5.2 293.624 5.2C293.757 5.2 293.857 5.24 293.924 5.32C294.004 5.38667 294.044 5.49333 294.044 5.64V7.84H293.824C294.051 7.01333 294.484 6.36 295.124 5.88C295.777 5.4 296.571 5.16 297.504 5.16C298.384 5.16 299.144 5.36667 299.784 5.78C300.424 6.18 300.917 6.75333 301.264 7.5C301.624 8.24667 301.804 9.13333 301.804 10.16C301.804 11.1733 301.631 12.06 301.284 12.82C300.937 13.5667 300.437 14.1467 299.784 14.56C299.144 14.96 298.384 15.16 297.504 15.16C296.571 15.16 295.777 14.92 295.124 14.44C294.484 13.9467 294.051 13.2933 293.824 12.48H294.044V18.28C294.044 18.4133 294.004 18.52 293.924 18.6C293.857 18.68 293.757 18.72 293.624 18.72ZM297.484 14.38C298.191 14.38 298.804 14.2133 299.324 13.88C299.844 13.5467 300.244 13.0667 300.524 12.44C300.804 11.8 300.944 11.04 300.944 10.16C300.944 8.82667 300.631 7.79333 300.004 7.06C299.391 6.31333 298.551 5.94 297.484 5.94C296.777 5.94 296.164 6.10667 295.644 6.44C295.124 6.77333 294.724 7.25333 294.444 7.88C294.164 8.50667 294.024 9.26667 294.024 10.16C294.024 11.4933 294.337 12.5333 294.964 13.28C295.591 14.0133 296.431 14.38 297.484 14.38ZM308.591 15.16C307.631 15.16 306.804 14.96 306.111 14.56C305.418 14.16 304.878 13.5933 304.491 12.86C304.118 12.1133 303.931 11.2267 303.931 10.2C303.931 9.18667 304.118 8.30667 304.491 7.56C304.878 6.8 305.404 6.21333 306.071 5.8C306.751 5.37333 307.531 5.16 308.411 5.16C309.038 5.16 309.591 5.26667 310.071 5.48C310.564 5.69333 310.978 6 311.311 6.4C311.658 6.8 311.918 7.28667 312.091 7.86C312.278 8.43333 312.371 9.08 312.371 9.8C312.371 9.97333 312.331 10.1067 312.251 10.2C312.184 10.28 312.078 10.32 311.931 10.32H304.471V9.58H311.931L311.591 9.82C311.591 9.00667 311.471 8.31333 311.231 7.74C310.991 7.15333 310.631 6.70667 310.151 6.4C309.684 6.08 309.098 5.92 308.391 5.92C307.618 5.92 306.958 6.10667 306.411 6.48C305.878 6.84 305.471 7.33333 305.191 7.96C304.924 8.58667 304.791 9.3 304.791 10.1V10.2C304.791 11.5333 305.118 12.5667 305.771 13.3C306.438 14.02 307.364 14.38 308.551 14.38C309.084 14.38 309.584 14.3133 310.051 14.18C310.518 14.0333 310.978 13.78 311.431 13.42C311.524 13.34 311.618 13.3 311.711 13.3C311.818 13.2867 311.904 13.3067 311.971 13.36C312.051 13.4 312.104 13.46 312.131 13.54C312.171 13.6067 312.178 13.6867 312.151 13.78C312.124 13.8733 312.058 13.96 311.951 14.04C311.538 14.3867 311.031 14.66 310.431 14.86C309.831 15.06 309.218 15.16 308.591 15.16ZM315.46 15.12C315.327 15.12 315.22 15.08 315.14 15C315.073 14.92 315.04 14.8133 315.04 14.68V5.64C315.04 5.49333 315.073 5.38667 315.14 5.32C315.22 5.24 315.327 5.2 315.46 5.2C315.593 5.2 315.693 5.24 315.76 5.32C315.827 5.38667 315.86 5.49333 315.86 5.64V7.58H315.66C315.913 6.79333 316.36 6.18667 317 5.76C317.653 5.33333 318.407 5.12 319.26 5.12C319.38 5.12 319.48 5.14667 319.56 5.2C319.653 5.24 319.7 5.32667 319.7 5.46C319.7 5.59333 319.667 5.7 319.6 5.78C319.533 5.84667 319.42 5.88667 319.26 5.9L319.02 5.92C318.033 6.01333 317.26 6.34667 316.7 6.92C316.153 7.49333 315.88 8.25333 315.88 9.2V14.68C315.88 14.8133 315.847 14.92 315.78 15C315.713 15.08 315.607 15.12 315.46 15.12ZM325.491 15.16C324.824 15.16 324.264 15.0333 323.811 14.78C323.357 14.5133 323.017 14.14 322.791 13.66C322.564 13.1667 322.451 12.5733 322.451 11.88V6.04H320.831C320.697 6.04 320.591 6.00667 320.511 5.94C320.431 5.87333 320.391 5.78667 320.391 5.68C320.391 5.57333 320.431 5.48667 320.511 5.42C320.591 5.35333 320.697 5.32 320.831 5.32H322.451V2.62C322.451 2.47333 322.484 2.36667 322.551 2.3C322.631 2.22 322.737 2.18 322.871 2.18C323.004 2.18 323.104 2.22 323.171 2.3C323.251 2.36667 323.291 2.47333 323.291 2.62V5.32H326.151C326.297 5.32 326.404 5.35333 326.471 5.42C326.551 5.48667 326.591 5.57333 326.591 5.68C326.591 5.78667 326.551 5.87333 326.471 5.94C326.404 6.00667 326.297 6.04 326.151 6.04H323.291V11.7C323.291 12.5667 323.464 13.2333 323.811 13.7C324.157 14.1533 324.737 14.38 325.551 14.38C325.831 14.38 326.057 14.3533 326.231 14.3C326.417 14.2333 326.571 14.2 326.691 14.2C326.771 14.2 326.837 14.2333 326.891 14.3C326.957 14.3667 326.991 14.46 326.991 14.58C326.991 14.6467 326.971 14.72 326.931 14.8C326.904 14.8667 326.844 14.9133 326.751 14.94C326.617 14.9933 326.424 15.04 326.171 15.08C325.931 15.1333 325.704 15.16 325.491 15.16ZM331.517 15.16C330.904 15.16 330.31 15.0733 329.737 14.9C329.164 14.7267 328.604 14.4333 328.057 14.02C327.99 13.9667 327.944 13.9 327.917 13.82C327.904 13.74 327.904 13.66 327.917 13.58C327.944 13.5 327.984 13.4333 328.037 13.38C328.104 13.3133 328.177 13.28 328.257 13.28C328.35 13.28 328.444 13.3133 328.537 13.38C329.044 13.7533 329.55 14.0133 330.057 14.16C330.564 14.3067 331.07 14.38 331.577 14.38C332.444 14.38 333.104 14.2133 333.557 13.88C334.024 13.5467 334.257 13.0933 334.257 12.52C334.257 12.0667 334.104 11.7133 333.797 11.46C333.504 11.1933 333.024 10.98 332.357 10.82L330.697 10.42C329.857 10.22 329.237 9.91333 328.837 9.5C328.45 9.08667 328.257 8.55333 328.257 7.9C328.257 7.35333 328.397 6.87333 328.677 6.46C328.97 6.04667 329.377 5.72667 329.897 5.5C330.43 5.27333 331.044 5.16 331.737 5.16C332.324 5.16 332.884 5.25333 333.417 5.44C333.964 5.62667 334.424 5.90667 334.797 6.28C334.877 6.36 334.924 6.44667 334.937 6.54C334.964 6.62 334.964 6.7 334.937 6.78C334.91 6.86 334.864 6.92 334.797 6.96C334.73 7 334.65 7.02 334.557 7.02C334.477 7.00667 334.39 6.96 334.297 6.88C333.924 6.56 333.517 6.32667 333.077 6.18C332.637 6.02 332.184 5.94 331.717 5.94C330.904 5.94 330.27 6.12 329.817 6.48C329.364 6.82667 329.137 7.29333 329.137 7.88C329.137 8.33333 329.277 8.7 329.557 8.98C329.837 9.26 330.284 9.47333 330.897 9.62L332.557 10.02C333.424 10.2333 334.07 10.5333 334.497 10.92C334.924 11.3067 335.137 11.8267 335.137 12.48C335.137 13.2933 334.81 13.9467 334.157 14.44C333.504 14.92 332.624 15.16 331.517 15.16ZM338.311 15.06C338.098 15.06 337.918 14.9867 337.771 14.84C337.625 14.6933 337.551 14.5133 337.551 14.3C337.551 14.0733 337.625 13.8933 337.771 13.76C337.918 13.6133 338.098 13.54 338.311 13.54C338.538 13.54 338.718 13.6133 338.851 13.76C338.985 13.8933 339.051 14.0733 339.051 14.3C339.051 14.5133 338.985 14.6933 338.851 14.84C338.718 14.9867 338.538 15.06 338.311 15.06Z" fill="white"/>
</svg>
