<svg width="24" height="24" viewBox="0 0 24 24" fill="none" xmlns="http://www.w3.org/2000/svg">
<path d="M12 0C5.37258 0 0 5.37258 0 12C0 18.6274 5.37258 24 12 24C18.6274 24 24 18.6274 24 12C24 5.37258 18.6274 0 12 0ZM12 22.9091C5.97506 22.9091 1.09092 18.0249 1.09092 12C1.09092 5.97506 5.97506 1.09092 12 1.09092C18.0249 1.09092 22.9091 5.97506 22.9091 12C22.9091 18.0249 18.0249 22.9091 12 22.9091Z" fill="black"/>
<path d="M15.2728 6.54541H8.72733C7.52236 6.54541 6.54553 7.52224 6.54553 8.72721V15.2726C6.54553 16.4776 7.52236 17.4544 8.72733 17.4544H15.2728C16.4777 17.4544 17.4546 16.4776 17.4546 15.2726V8.72725C17.4546 7.52224 16.4778 6.54541 15.2728 6.54541ZM14.1818 8.18177H15.8182V9.81813H14.1818V8.18177ZM12 9.81818C13.205 9.81818 14.1818 10.795 14.1818 12C14.1818 13.2049 13.205 14.1818 12 14.1818C10.7951 14.1818 9.81825 13.2049 9.81825 12C9.81825 10.795 10.7951 9.81818 12 9.81818ZM16.3637 15.2727C16.3637 15.8752 15.8753 16.3636 15.2728 16.3636H8.72733C8.12485 16.3636 7.63641 15.8752 7.63641 15.2727V11.4545H8.78185C8.45428 13.232 9.62967 14.9386 11.4072 15.2662C13.1848 15.5938 14.8913 14.4183 15.2189 12.6408C15.2579 12.4295 15.2759 12.2148 15.2728 12C15.27 11.8169 15.2518 11.6345 15.2182 11.4545H16.3636V15.2727H16.3637Z" fill="black"/>
</svg>
