<svg width="158" height="158" viewBox="0 0 158 158" fill="none" xmlns="http://www.w3.org/2000/svg">
<path d="M119.199 81.3126L110.782 80.9876L110.802 80.448L119.22 80.773L119.199 81.3126Z" fill="white"/>
<path d="M109.282 91.0616L109.391 90.5327L117.772 87.2159L110.392 85.691L110.501 85.1622L118.739 86.8643L118.63 87.3931L110.273 90.7148L117.629 92.2349L117.52 92.7637L109.282 91.0616Z" fill="white"/>
<path d="M113.534 103.093L113.119 102.903L114.12 100.721L106.877 97.3996L107.102 96.9088L114.345 100.23L115.345 98.0486L115.76 98.2387L113.534 103.093Z" fill="white"/>
<path d="M109.976 108.27L107.125 106.212L105.158 108.936L104.789 108.67L106.755 105.945L103.885 103.873L101.708 106.89L101.338 106.623L103.831 103.169L110.662 108.099L108.168 111.553L107.799 111.286L109.976 108.27Z" fill="white"/>
<path d="M94.0942 114.036L98.1064 115.237L98.1419 115.205L99.4734 113.993L97.0589 111.339L97.4584 110.976L103.127 117.207L101.414 118.766C100.722 119.396 100.056 119.704 99.4164 119.691C98.7712 119.683 98.2036 119.41 97.7137 118.871C97.2777 118.392 97.0531 117.872 97.04 117.31C97.0263 116.76 97.2446 116.216 97.6949 115.676L93.6148 114.473L94.0942 114.036ZM99.7802 114.331L98.4488 115.542C97.8984 116.043 97.6083 116.55 97.5783 117.064C97.5483 117.578 97.7325 118.054 98.1309 118.492C98.9976 119.444 99.9843 119.417 101.091 118.411L102.405 117.216L99.7802 114.331Z" fill="white"/>
<path d="M95.198 123.54L90.5206 116.534L90.9697 116.235L95.6471 123.241L95.198 123.54Z" fill="white"/>
<path d="M83.5699 120.158C84.2823 119.851 84.9963 119.738 85.7119 119.822C86.4306 119.912 87.0816 120.189 87.6648 120.651C88.2481 121.114 88.703 121.724 89.0296 122.48C89.3594 123.244 89.4912 123.993 89.4249 124.728C89.3618 125.469 89.1152 126.129 88.685 126.707C88.258 127.292 87.6883 127.739 86.9759 128.046C86.2635 128.354 85.5479 128.462 84.8291 128.372C84.1135 128.289 83.4641 128.016 82.8809 127.553C82.3009 127.098 81.846 126.488 81.5161 125.724C81.1895 124.968 81.0577 124.219 81.1208 123.477C81.1839 122.735 81.429 122.072 81.856 121.486C82.2862 120.909 82.8575 120.466 83.5699 120.158ZM83.7602 120.599C83.1506 120.862 82.6616 121.243 82.2932 121.742C81.9247 122.241 81.7152 122.815 81.6644 123.464C81.6063 124.117 81.7295 124.796 82.0339 125.501C82.3415 126.213 82.7527 126.772 83.2675 127.177C83.775 127.585 84.3365 127.827 84.9523 127.901C85.5681 127.974 86.1808 127.88 86.7904 127.617C87.4 127.353 87.889 126.972 88.2574 126.473C88.6258 125.975 88.839 125.399 88.8971 124.746C88.9552 124.094 88.8305 123.411 88.5229 122.699C88.2184 121.994 87.8088 121.439 87.294 121.034C86.7792 120.629 86.214 120.389 85.5982 120.315C84.9824 120.241 84.3698 120.336 83.7602 120.599Z" fill="white"/>
<path d="M70.113 123.758L72.7978 126.972L72.8453 126.965L74.624 126.689L74.0735 123.143L74.6071 123.06L75.8995 131.385L73.6109 131.74C72.686 131.884 71.9605 131.774 71.4345 131.41C70.9006 131.048 70.5778 130.507 70.4661 129.787C70.3667 129.147 70.4663 128.589 70.7649 128.114C71.0568 127.647 71.5393 127.313 72.2123 127.112L69.4726 123.858L70.113 123.758ZM74.6939 127.139L72.9152 127.416C72.18 127.53 71.6582 127.793 71.3498 128.205C71.0414 128.617 70.9326 129.116 71.0234 129.701C71.221 130.974 72.059 131.495 73.5373 131.266L75.2922 130.993L74.6939 127.139Z" fill="white"/>
<path d="M56.4061 131.446C55.0084 131.174 54.0037 130.599 53.392 129.722C52.7725 128.844 52.5896 127.753 52.8434 126.449C53.0972 125.146 53.6753 124.207 54.5777 123.633C55.4722 123.057 56.6183 122.905 58.0161 123.177L60.3365 123.629L58.7266 131.898L56.4061 131.446ZM57.9289 123.625C56.6804 123.382 55.6675 123.519 54.8904 124.036C54.1117 124.561 53.61 125.4 53.3853 126.555C53.159 127.717 53.3083 128.687 53.8331 129.466C54.358 130.245 55.2447 130.755 56.4933 130.999L58.2837 131.347L59.7193 123.974L57.9289 123.625Z" fill="white"/>
<path d="M46.2336 128.084L47.6634 124.871L44.5938 123.505L44.7792 123.088L47.8489 124.455L49.2884 121.221L45.8899 119.708L46.0754 119.291L49.9672 121.024L46.5415 128.72L42.6497 126.987L42.8351 126.571L46.2336 128.084Z" fill="white"/>
<path d="M39.0891 114.875C39.5302 115.194 39.86 115.55 40.0784 115.945C40.2969 116.339 40.4041 116.737 40.4003 117.139C40.3899 117.536 40.2807 117.906 40.0725 118.249L39.6152 117.919C39.8208 117.525 39.8849 117.088 39.8073 116.607C39.7232 116.122 39.3925 115.671 38.8152 115.255C38.4779 115.011 38.1415 114.862 37.8061 114.808C37.4641 114.748 37.1478 114.776 36.8571 114.892C36.5663 115.008 36.3273 115.195 36.14 115.455C35.9012 115.786 35.7927 116.107 35.8144 116.419C35.8296 116.726 35.9221 117.014 36.0918 117.285C36.2551 117.551 36.498 117.884 36.8206 118.284C37.1774 118.72 37.4499 119.094 37.638 119.407C37.8197 119.716 37.918 120.058 37.9328 120.434C37.9365 120.812 37.7862 121.211 37.4819 121.633C37.2477 121.957 36.9504 122.192 36.5897 122.336C36.2179 122.482 35.8169 122.518 35.3867 122.444C34.9565 122.37 34.5338 122.184 34.1187 121.884C33.5154 121.449 33.1366 120.948 32.9823 120.383C32.8279 119.818 32.8719 119.292 33.1143 118.806L33.5813 119.143C33.4938 119.346 33.4526 119.588 33.4577 119.868C33.4564 120.143 33.5368 120.428 33.699 120.723C33.85 121.019 34.0942 121.289 34.4315 121.533C34.8856 121.86 35.3596 122.01 35.8536 121.982C36.3428 121.96 36.7373 121.742 37.037 121.327C37.2758 120.996 37.3867 120.671 37.3697 120.353C37.348 120.042 37.2578 119.75 37.0992 119.477C36.9295 119.207 36.6809 118.874 36.3537 118.48C35.9951 118.034 35.7282 117.659 35.553 117.355C35.3667 117.052 35.2716 116.713 35.2679 116.335C35.2531 115.959 35.3955 115.564 35.6951 115.149C35.9152 114.844 36.2047 114.614 36.5635 114.458C36.9223 114.303 37.3238 114.252 37.7681 114.307C38.2012 114.363 38.6415 114.552 39.0891 114.875Z" fill="white"/>
<path d="M28.2563 116.718L34.1695 110.718L34.5541 111.097L28.6409 117.097L28.2563 116.718Z" fill="white"/>
<path d="M22.4648 105.572C22.0867 106.133 21.9054 106.75 21.9209 107.424C21.9318 108.092 22.1562 108.737 22.5943 109.358C22.977 109.9 23.4503 110.301 24.0142 110.559C24.5781 110.817 25.1853 110.908 25.8358 110.831C26.4863 110.754 27.1254 110.494 27.753 110.051C28.3806 109.609 28.8398 109.094 29.1307 108.507C29.4216 107.92 29.54 107.317 29.4861 106.7C29.4256 106.086 29.204 105.508 28.8213 104.966C28.4524 104.443 28.0004 104.052 27.4654 103.793C26.9303 103.534 26.3571 103.429 25.7458 103.479C25.128 103.532 24.5189 103.752 23.9186 104.136L26.0834 107.205L25.7108 107.468L23.2278 103.948L23.522 103.74C24.1765 103.308 24.8602 103.056 25.573 102.984C26.2858 102.912 26.9612 103.023 27.5993 103.317C28.2374 103.611 28.7755 104.068 29.2135 104.689C29.6608 105.323 29.9171 105.999 29.9826 106.716C30.0415 107.439 29.9077 108.13 29.581 108.791C29.2478 109.457 28.7445 110.027 28.0712 110.502C27.3912 110.982 26.6851 111.264 25.9527 111.35C25.2137 111.441 24.5173 111.335 23.8635 111.032C23.2031 110.735 22.6493 110.269 22.202 109.634C21.681 108.896 21.4177 108.127 21.4123 107.328C21.3957 106.527 21.6266 105.772 22.1052 105.062L22.4648 105.572Z" fill="white"/>
<path d="M22.6583 91.4185L22.8423 91.9262L17.4419 99.1421L24.5269 96.5744L24.7109 97.082L16.8023 99.9483L16.6183 99.4406L21.9962 92.2329L14.9337 94.7925L14.7497 94.2848L22.6583 91.4185Z" fill="white"/>
<path d="M16.6638 77.0461C16.7537 76.5585 16.9953 76.1514 17.3886 75.8249C17.7819 75.4904 18.2425 75.3242 18.7705 75.3262C19.2025 75.3279 19.5901 75.4334 19.9333 75.6427C20.2685 75.844 20.5353 76.1491 20.7338 76.5578C20.9242 76.9586 21.0183 77.4469 21.0161 78.0229L21.0058 80.6989L12.5818 80.6664L12.592 78.0384C12.5952 77.1984 12.7937 76.5672 13.1873 76.1447C13.573 75.7142 14.0738 75.5001 14.6898 75.5025C15.2258 75.5046 15.6612 75.6502 15.9961 75.9395C16.323 76.2288 16.5456 76.5977 16.6638 77.0461ZM16.4119 80.1412L16.4201 78.0292C16.4225 77.3972 16.2764 76.9126 15.9817 76.5755C15.679 76.2303 15.2637 76.0567 14.7357 76.0547C14.2237 76.0527 13.819 76.2191 13.5217 76.554C13.2244 76.8888 13.0745 77.3963 13.0718 78.0763L13.0639 80.1283L16.4119 80.1412ZM20.548 78.0571C20.5506 77.3771 20.3927 76.8445 20.0741 76.4593C19.7477 76.066 19.3004 75.8683 18.7324 75.8661C18.1724 75.8639 17.7277 76.0622 17.3981 76.461C17.0606 76.8517 16.8905 77.391 16.8879 78.079L16.8799 80.143L20.5399 80.1571L20.548 78.0571Z" fill="white"/>
<path d="M22.5336 67.7092C22.3392 68.4605 21.9895 69.0931 21.4846 69.607C20.972 70.1188 20.3541 70.463 19.6308 70.6394C18.9076 70.8158 18.1471 70.8008 17.3494 70.5943C16.5439 70.3859 15.8716 70.0301 15.3325 69.527C14.7856 69.0218 14.416 68.4221 14.2239 67.7278C14.024 67.0315 14.0212 66.3077 14.2156 65.5565C14.4101 64.8052 14.7636 64.1737 15.2762 63.6618C15.7811 63.1479 16.3951 62.8027 17.1184 62.6263C17.8339 62.4479 18.5944 62.4629 19.3999 62.6714C20.1976 62.8778 20.8699 63.2336 21.4168 63.7388C21.9637 64.2439 22.3371 64.8446 22.537 65.5409C22.7291 66.2352 22.728 66.958 22.5336 67.7092ZM22.0689 67.589C22.2353 66.9461 22.2346 66.3262 22.0668 65.7291C21.8991 65.1321 21.5745 64.6142 21.093 64.1756C20.6135 63.7292 20.0021 63.4098 19.2586 63.2174C18.5073 63.023 17.8138 63.0046 17.178 63.1623C16.5442 63.3123 16.0091 63.6077 15.5728 64.0484C15.1364 64.4892 14.8351 65.0309 14.6687 65.6737C14.5023 66.3166 14.503 66.9365 14.6708 67.5336C14.8385 68.1307 15.1621 68.6524 15.6416 69.0988C16.1211 69.5451 16.7364 69.8655 17.4877 70.0599C18.2312 70.2524 18.9208 70.2697 19.5566 70.112C20.1924 69.9543 20.7285 69.655 21.1648 69.2143C21.6012 68.7736 21.9025 68.2318 22.0689 67.589Z" fill="white"/>
<path d="M18.106 55.1286L22.6806 57.7409C23.5073 58.213 24.2223 58.3725 24.8256 58.2196C25.4219 58.0626 25.9045 57.6611 26.2735 57.015C26.6384 56.3759 26.735 55.7631 26.5632 55.1767C26.3913 54.5903 25.8886 54.0591 25.0549 53.5831L20.4802 50.9708L20.748 50.5018L25.3123 53.1082C26.264 53.6517 26.8417 54.2856 27.0454 55.0099C27.249 55.7342 27.1306 56.4819 26.6903 57.253C26.2499 58.0242 25.6622 58.513 24.9269 58.7196C24.1888 58.9153 23.3472 58.7434 22.4024 58.2039L17.8382 55.5975L18.106 55.1286Z" fill="white"/>
<path d="M27.8181 41.5891L28.1554 41.896L26.5404 43.6713L32.4344 49.0331L32.071 49.4326L26.177 44.0707L24.562 45.846L24.2247 45.5391L27.8181 41.5891Z" fill="white"/>
<path d="M31.938 37.8543L37.3295 44.327L36.9145 44.6726L31.5231 38.1999L31.938 37.8543Z" fill="white"/>
<path d="M47.5588 39.7131L44.8014 39.1782C44.4994 39.5054 44.15 39.7814 43.7532 40.006C43.0779 40.3883 42.3801 40.5766 41.6597 40.5707C40.9354 40.5579 40.2585 40.3528 39.629 39.9554C38.9995 39.5579 38.4817 39.0007 38.0758 38.2836C37.6659 37.5596 37.4544 36.8289 37.4415 36.0916C37.4246 35.3473 37.599 34.6648 37.9646 34.0441C38.3264 33.4165 38.8449 32.9115 39.5201 32.5292C40.1954 32.1468 40.8952 31.9621 41.6195 31.9749C42.3399 31.9807 43.0149 32.1824 43.6444 32.5798C44.2699 32.9703 44.7877 33.5275 45.1976 34.2515C45.6351 35.0243 45.8438 35.807 45.8238 36.5998C45.8107 37.3886 45.5896 38.1022 45.1604 38.7405L48.2271 39.3347L47.5588 39.7131ZM38.5561 38.0117C38.9345 38.68 39.4013 39.1879 39.9566 39.5354C40.5119 39.883 41.0996 40.0604 41.7198 40.0679C42.3399 40.0753 42.9389 39.9155 43.5167 39.5883C44.0946 39.2612 44.5398 38.8298 44.8525 38.2942C45.1653 37.7587 45.312 37.1654 45.2928 36.5143C45.2805 35.8594 45.0852 35.1977 44.7068 34.5294C44.3245 33.8541 43.8557 33.3427 43.3004 32.9952C42.7521 32.6437 42.1678 32.4643 41.5477 32.4569C40.9275 32.4494 40.3285 32.6093 39.7507 32.9364C39.1729 33.2635 38.7276 33.6949 38.4149 34.2305C38.1022 34.7661 37.952 35.3613 37.9642 36.0163C37.9765 36.6713 38.1738 37.3364 38.5561 38.0117Z" fill="white"/>
<path d="M49.718 28.0418L51.0185 33.1467C51.2535 34.0693 51.6356 34.6943 52.1649 35.0217C52.6921 35.3415 53.3162 35.4095 54.0372 35.2258C54.7504 35.0441 55.2582 34.6878 55.5604 34.1567C55.8627 33.6256 55.8953 32.895 55.6583 31.9647L54.3578 26.8597L54.8811 26.7264L56.1786 31.8198C56.4492 32.8818 56.3948 33.7377 56.0155 34.3875C55.6362 35.0373 55.0162 35.4718 54.1557 35.691C53.2952 35.9102 52.5352 35.8273 51.8757 35.4421C51.222 35.0473 50.7609 34.3227 50.4923 33.2684L49.1947 28.1751L49.718 28.0418Z" fill="white"/>
<path d="M62.3528 26.1609L62.4478 29.6756L65.8065 29.5849L65.8189 30.0407L62.4601 30.1315L62.5557 33.6702L66.2744 33.5697L66.2867 34.0255L62.0282 34.1406L61.8007 25.7197L66.0591 25.6046L66.0714 26.0604L62.3528 26.1609Z" fill="white"/>
<path d="M72.3314 26.0106L71.3595 34.3783L70.8231 34.316L71.795 25.9483L72.3314 26.0106Z" fill="white"/>
<path d="M81.36 36.6728L80.8415 36.5217L78.2036 27.9034L76.095 35.1384L75.5766 34.9873L77.9302 26.9113L78.4487 27.0624L81.0934 35.6576L83.1952 28.4457L83.7136 28.5968L81.36 36.6728Z" fill="white"/>
<path d="M93.6483 33.3489L93.4266 33.7474L91.3294 32.5804L87.455 39.543L86.9832 39.2804L90.8576 32.3178L88.7604 31.1508L88.9821 30.7524L93.6483 33.3489Z" fill="white"/>
<path d="M98.5103 37.2726L96.2404 39.9577L98.8064 42.1269L98.512 42.4751L95.946 40.306L93.6606 43.0094L96.5016 45.411L96.2072 45.7592L92.9539 43.009L98.3923 36.5758L101.646 39.326L101.351 39.6742L98.5103 37.2726Z" fill="white"/>
<path d="M103.052 53.5492L104.555 49.6403L104.525 49.6024L103.419 48.1824L100.589 50.3871L100.257 49.9611L106.903 44.7847L108.326 46.6119C108.901 47.3503 109.158 48.0377 109.096 48.6742C109.039 49.3169 108.723 49.862 108.149 50.3093C107.637 50.7075 107.101 50.8917 106.541 50.8619C105.991 50.8335 105.465 50.5743 104.962 50.0842L103.45 54.0604L103.052 53.5492ZM103.779 47.9022L104.885 49.3222C105.342 49.9092 105.826 50.2372 106.336 50.3063C106.846 50.3755 107.335 50.2281 107.802 49.8643C108.818 49.0729 108.867 48.087 107.947 46.9068L106.856 45.5057L103.779 47.9022Z" fill="white"/>
<path d="M112.556 53.0744L105.21 57.1977L104.946 56.7268L112.292 52.6035L112.556 53.0744Z" fill="white"/>
<path d="M108.332 64.4625C108.082 63.728 108.026 63.0074 108.165 62.3006C108.312 61.5912 108.639 60.964 109.146 60.4189C109.653 59.8739 110.296 59.4683 111.076 59.2022C111.864 58.9335 112.621 58.861 113.348 58.9848C114.082 59.1061 114.721 59.4039 115.263 59.8781C115.813 60.3498 116.213 60.9529 116.464 61.6873C116.714 62.4217 116.766 63.1436 116.62 63.853C116.48 64.5598 116.157 65.1858 115.65 65.7308C115.151 66.2732 114.507 66.6788 113.72 66.9475C112.94 67.2137 112.183 67.2861 111.448 67.1649C110.714 67.0436 110.071 66.7472 109.522 66.2755C108.979 65.8012 108.583 65.1969 108.332 64.4625ZM108.787 64.3074C109.001 64.9358 109.342 65.4533 109.811 65.8598C110.279 66.2663 110.835 66.5204 111.478 66.622C112.124 66.7312 112.811 66.6618 113.538 66.4138C114.272 66.1631 114.861 65.7971 115.306 65.3158C115.753 64.8421 116.037 64.3012 116.159 63.6931C116.281 63.0851 116.235 62.4669 116.021 61.8384C115.806 61.21 115.465 60.6926 114.997 60.2861C114.528 59.8796 113.971 59.6217 113.325 59.5125C112.679 59.4033 111.989 59.474 111.255 59.7246C110.528 59.9727 109.942 60.3374 109.498 60.8187C109.053 61.3 108.77 61.8447 108.648 62.4527C108.526 63.0608 108.572 63.679 108.787 64.3074Z" fill="white"/>
<path d="M110.902 78.1864L114.313 75.7563L114.309 75.7084L114.171 73.9138L110.593 74.1903L110.552 73.6519L118.951 73.0027L119.129 75.3118C119.201 76.245 119.036 76.9599 118.633 77.4564C118.231 77.9609 117.667 78.2412 116.941 78.2973C116.295 78.3473 115.746 78.2051 115.295 77.8709C114.852 77.544 114.556 77.0373 114.407 76.3508L110.952 78.8324L110.902 78.1864ZM114.625 73.8786L114.764 75.6733C114.821 76.4151 115.044 76.9555 115.431 77.2947C115.818 77.6338 116.307 77.7806 116.897 77.735C118.181 77.6357 118.766 76.8403 118.651 75.3488L118.514 73.578L114.625 73.8786Z" fill="white"/>
<path d="M81 76.5L52.5 94.2535L52.5 58.7465L81 76.5Z" fill="white"/>
<circle cx="79" cy="79" r="78.5" stroke="white" stroke-opacity="0.47"/>
</svg>
