<svg width="32" height="32" viewBox="0 0 32 32" fill="none" xmlns="http://www.w3.org/2000/svg">
<path d="M16 0C7.16354 0 0 7.16354 0 16C0 24.8365 7.16354 32 16 32C24.8365 32 32 24.8365 32 16C31.9901 7.16771 24.8323 0.00989587 16 0ZM16 30.9333C7.7526 30.9333 1.06667 24.2474 1.06667 16C1.06667 7.7526 7.7526 1.06667 16 1.06667C24.2474 1.06667 30.9333 7.7526 30.9333 16C30.924 24.2435 24.2435 30.924 16 30.9333Z" fill="white"/>
<path d="M20.1933 19.4383C22.6248 16.6016 22.3795 12.3505 19.6381 9.81199C16.8967 7.27345 12.6394 7.35522 9.99748 9.99715C7.35555 12.6391 7.27378 16.8964 9.81232 19.6378C12.3509 22.3792 16.6019 22.6245 19.4386 20.193L23.0899 23.8438C23.2993 24.0458 23.6319 24.043 23.8376 23.8372C24.0433 23.6315 24.0462 23.299 23.8441 23.0896L20.1933 19.4383ZM14.9337 20.8C11.6936 20.8 9.06701 18.1734 9.06701 14.9333C9.06701 11.6932 11.6936 9.06668 14.9337 9.06668C18.1738 9.06668 20.8003 11.6932 20.8003 14.9333C20.7964 18.1719 18.1722 20.7961 14.9337 20.8Z" fill="white"/>
</svg>
