<svg width="24" height="24" viewBox="0 0 24 24" fill="none" xmlns="http://www.w3.org/2000/svg">
<path d="M17.7 7.79998C17.2596 8.06089 16.7783 8.2453 16.2763 8.34542C15.8498 7.89805 15.2581 7.64558 14.64 7.64722C13.4223 7.63808 12.4245 8.61149 12.4036 9.82902C12.4041 9.99805 12.4242 10.1665 12.4636 10.3309C10.6703 10.2462 8.99538 9.41075 7.84905 8.02906C7.65297 8.35949 7.5476 8.7358 7.54361 9.11998C7.54366 9.86075 7.91955 10.5508 8.54182 10.9527C8.18646 10.9411 7.83883 10.8458 7.52725 10.6745C7.52725 10.6745 7.52725 10.6745 7.52725 10.7018C7.52369 11.7657 8.27716 12.6818 9.32182 12.8836C8.99252 12.9714 8.64771 12.9844 8.31274 12.9218C8.61391 13.823 9.45171 14.4355 10.4018 14.4491C9.61085 15.0642 8.63833 15.3998 7.63638 15.4036C7.45408 15.4034 7.27193 15.3925 7.09094 15.3709C8.11741 16.0202 9.30724 16.3645 10.5219 16.3636C13.9856 16.4269 16.8448 13.6702 16.9081 10.2065C16.9088 10.1698 16.9091 10.1331 16.9091 10.0963C16.9091 10.0018 16.9091 9.90725 16.9091 9.8127C17.3366 9.49939 17.7059 9.11356 18.0001 8.6727C17.5906 8.852 17.1568 8.96961 16.7128 9.02178C17.1797 8.74845 17.5308 8.31397 17.7 7.79998Z" fill="black"/>
<path d="M12 0C5.37258 0 0 5.37258 0 12C0 18.6274 5.37258 24 12 24C18.6274 24 24 18.6274 24 12C24 5.37258 18.6274 0 12 0ZM12 22.9091C5.97506 22.9091 1.09092 18.0249 1.09092 12C1.09092 5.97506 5.97506 1.09092 12 1.09092C18.0249 1.09092 22.9091 5.97506 22.9091 12C22.9091 18.0249 18.0249 22.9091 12 22.9091Z" fill="black"/>
</svg>
